<svg width="135" height="66" viewBox="0 0 135 66" fill="none" xmlns="http://www.w3.org/2000/svg">
<g filter="url(#filter0_d)">
<path d="M15.4731 15.4741H5.80371" stroke="white" stroke-width="3" stroke-linecap="round" stroke-linejoin="round"/>
<path d="M15.4746 5.80273V46.423H56.0947" stroke="white" stroke-width="3" stroke-linecap="round" stroke-linejoin="round"/>
<path d="M46.4227 36.7515V15.4741H25.1436" stroke="white" stroke-width="3" stroke-linecap="round" stroke-linejoin="round"/>
<path d="M46.4238 56.0948V46.4233" stroke="white" stroke-width="3" stroke-linecap="round" stroke-linejoin="round"/>
<path d="M21.8 39V25.88H23.8L26.32 32.88C26.48 33.3333 26.6333 33.7933 26.78 34.26C26.94 34.7133 27.1 35.1667 27.26 35.62H27.34C27.5 35.1667 27.6467 34.7133 27.78 34.26C27.9267 33.7933 28.08 33.3333 28.24 32.88L30.72 25.88H32.74V39H31.18V31.78C31.18 31.1933 31.2067 30.5467 31.26 29.84C31.3133 29.1333 31.36 28.4867 31.4 27.9H31.32L30.28 30.88L27.8 37.68H26.7L24.22 30.88L23.18 27.9H23.1C23.14 28.4867 23.18 29.1333 23.22 29.84C23.2733 30.5467 23.3 31.1933 23.3 31.78V39H21.8ZM35.5713 31.1V30.36C36.1713 29.8133 36.7046 29.3267 37.1712 28.9C37.6379 28.46 38.0246 28.06 38.3313 27.7C38.6379 27.34 38.8713 27.0067 39.0313 26.7C39.1913 26.38 39.2713 26.0733 39.2713 25.78C39.2713 25.2733 39.1379 24.8733 38.8713 24.58C38.6046 24.2867 38.2379 24.14 37.7713 24.14C37.4379 24.14 37.1313 24.2533 36.8513 24.48C36.5713 24.6933 36.3179 24.96 36.0913 25.28L35.3313 24.58C35.6379 24.1267 36.0113 23.76 36.4513 23.48C36.9046 23.2 37.3979 23.06 37.9313 23.06C38.7179 23.06 39.3446 23.2733 39.8112 23.7C40.2913 24.1267 40.5313 24.7533 40.5313 25.58C40.5313 25.9533 40.4579 26.3133 40.3113 26.66C40.1646 27.0067 39.9579 27.36 39.6913 27.72C39.4379 28.0667 39.1313 28.4267 38.7713 28.8C38.4246 29.1733 38.0446 29.5733 37.6313 30H40.9313V31.1H35.5713Z" fill="white"/>
</g>
<g filter="url(#filter1_d)">
<path d="M88.5757 15.4741H78.9062" stroke="white" stroke-width="3" stroke-linecap="round" stroke-linejoin="round"/>
<path d="M88.5771 5.80273V46.423H129.197" stroke="white" stroke-width="3" stroke-linecap="round" stroke-linejoin="round"/>
<path d="M119.525 36.7515V15.4741H98.2461" stroke="white" stroke-width="3" stroke-linecap="round" stroke-linejoin="round"/>
<path d="M119.526 56.0948V46.4233" stroke="white" stroke-width="3" stroke-linecap="round" stroke-linejoin="round"/>
<path d="M94.9025 39V25.88H96.5625V31.38H102.663V25.88H104.343V39H102.663V32.82H96.5625V39H94.9025ZM110.029 39.24C109.216 39.24 108.536 39 107.989 38.52C107.456 38.04 107.189 37.36 107.189 36.48C107.189 35.4133 107.663 34.6 108.609 34.04C109.556 33.4667 111.069 33.0667 113.149 32.84C113.149 32.5333 113.116 32.2333 113.049 31.94C112.996 31.6467 112.896 31.3867 112.749 31.16C112.603 30.9333 112.396 30.7533 112.129 30.62C111.876 30.4733 111.549 30.4 111.149 30.4C110.589 30.4 110.063 30.5067 109.569 30.72C109.076 30.9333 108.636 31.1733 108.249 31.44L107.609 30.3C108.063 30.0067 108.616 29.7267 109.269 29.46C109.923 29.18 110.643 29.04 111.429 29.04C112.616 29.04 113.476 29.4067 114.009 30.14C114.543 30.86 114.809 31.8267 114.809 33.04V39H113.449L113.309 37.84H113.249C112.783 38.2267 112.283 38.56 111.749 38.84C111.216 39.1067 110.643 39.24 110.029 39.24ZM110.509 37.92C110.976 37.92 111.416 37.8133 111.829 37.6C112.243 37.3733 112.683 37.0467 113.149 36.62V33.92C112.336 34.0267 111.649 34.1533 111.089 34.3C110.543 34.4467 110.096 34.62 109.749 34.82C109.416 35.02 109.169 35.2533 109.009 35.52C108.863 35.7733 108.789 36.0533 108.789 36.36C108.789 36.92 108.956 37.32 109.289 37.56C109.623 37.8 110.029 37.92 110.509 37.92Z" fill="white"/>
</g>
<g clip-path="url(#clip0)" filter="url(#filter2_ii)">
<path d="M71.6471 27.959V29.559H63.1747V27.959C63.1747 27.2162 62.2767 26.8442 61.7514 27.3694L58.7618 30.359C58.4362 30.6846 58.4362 31.2125 58.7618 31.5381L61.7514 34.5278C62.2767 35.053 63.1747 34.681 63.1747 33.9382V32.3382H71.6471V33.9382C71.6471 34.681 72.5451 35.053 73.0704 34.5278L76.06 31.5382C76.3856 31.2125 76.3856 30.6847 76.06 30.3591L73.0704 27.3694C72.5451 26.8442 71.6471 27.2162 71.6471 27.959V27.959Z" fill="white"/>
</g>
<defs>
<filter id="filter0_d" x="-4" y="0" width="69.8972" height="69.8972" filterUnits="userSpaceOnUse" color-interpolation-filters="sRGB">
<feFlood flood-opacity="0" result="BackgroundImageFix"/>
<feColorMatrix in="SourceAlpha" type="matrix" values="0 0 0 0 0 0 0 0 0 0 0 0 0 0 0 0 0 0 127 0"/>
<feOffset dy="4"/>
<feGaussianBlur stdDeviation="2"/>
<feColorMatrix type="matrix" values="0 0 0 0 0 0 0 0 0 0 0 0 0 0 0 0 0 0 0.25 0"/>
<feBlend mode="normal" in2="BackgroundImageFix" result="effect1_dropShadow"/>
<feBlend mode="normal" in="SourceGraphic" in2="effect1_dropShadow" result="shape"/>
</filter>
<filter id="filter1_d" x="69.1025" y="0" width="69.8972" height="69.8972" filterUnits="userSpaceOnUse" color-interpolation-filters="sRGB">
<feFlood flood-opacity="0" result="BackgroundImageFix"/>
<feColorMatrix in="SourceAlpha" type="matrix" values="0 0 0 0 0 0 0 0 0 0 0 0 0 0 0 0 0 0 127 0"/>
<feOffset dy="4"/>
<feGaussianBlur stdDeviation="2"/>
<feColorMatrix type="matrix" values="0 0 0 0 0 0 0 0 0 0 0 0 0 0 0 0 0 0 0.25 0"/>
<feBlend mode="normal" in2="BackgroundImageFix" result="effect1_dropShadow"/>
<feBlend mode="normal" in="SourceGraphic" in2="effect1_dropShadow" result="shape"/>
</filter>
<filter id="filter2_ii" x="54.5176" y="18.0552" width="21.7866" height="21.7866" filterUnits="userSpaceOnUse" color-interpolation-filters="sRGB">
<feFlood flood-opacity="0" result="BackgroundImageFix"/>
<feBlend mode="normal" in="SourceGraphic" in2="BackgroundImageFix" result="shape"/>
<feColorMatrix in="SourceAlpha" type="matrix" values="0 0 0 0 0 0 0 0 0 0 0 0 0 0 0 0 0 0 127 0" result="hardAlpha"/>
<feOffset dy="-12"/>
<feGaussianBlur stdDeviation="2"/>
<feComposite in2="hardAlpha" operator="arithmetic" k2="-1" k3="1"/>
<feColorMatrix type="matrix" values="0 0 0 0 0.32549 0 0 0 0 0.470588 0 0 0 0 0.584314 0 0 0 0.15 0"/>
<feBlend mode="normal" in2="shape" result="effect1_innerShadow"/>
<feColorMatrix in="SourceAlpha" type="matrix" values="0 0 0 0 0 0 0 0 0 0 0 0 0 0 0 0 0 0 127 0" result="hardAlpha"/>
<feOffset dx="-12"/>
<feGaussianBlur stdDeviation="2"/>
<feComposite in2="hardAlpha" operator="arithmetic" k2="-1" k3="1"/>
<feColorMatrix type="matrix" values="0 0 0 0 0.0352941 0 0 0 0 0.12549 0 0 0 0 0.247059 0 0 0 0.15 0"/>
<feBlend mode="normal" in2="effect1_innerShadow" result="effect2_innerShadow"/>
</filter>
<clipPath id="clip0">
<rect width="17.7866" height="17.7866" fill="white" transform="translate(58.5176 22.0552)"/>
</clipPath>
</defs>
</svg>
