<svg width="48" height="48" viewBox="0 0 48 48" fill="none" xmlns="http://www.w3.org/2000/svg">
<g filter="url(#filter0_ii)">
<path d="M48 23.1398C47.9876 20.5762 47.0959 18.0945 45.4739 16.1093C43.8518 14.1241 41.5976 12.7556 39.088 12.2324C38.3576 8.77286 36.4602 5.66948 33.7138 3.44243C30.9674 1.21538 27.539 0 24.0032 0C20.4674 0 17.0389 1.21538 14.2926 3.44243C11.5462 5.66948 9.64885 8.77286 8.91842 12.2324C6.40812 12.7549 4.15317 14.1231 2.53045 16.1084C0.907717 18.0936 0.0155237 20.5757 0.00297314 23.1398C0.00380166 25.8992 1.03582 28.5587 2.89651 30.5965C1.49092 32.0446 0.543828 33.8753 0.173836 35.8592C-0.196157 37.8432 0.0273967 39.8922 0.8165 41.7496C1.6056 43.6071 2.92518 45.1905 4.60999 46.3015C6.29479 47.4125 8.26992 48.0017 10.288 47.9954H29.144C30.8072 48.0023 32.447 47.6042 33.9218 46.8355C35.3966 46.0668 36.6621 44.9505 37.6089 43.5831C38.5557 42.2158 39.1553 40.6385 39.3559 38.9875C39.5566 37.3365 39.3523 35.6614 38.7606 34.1071C41.3442 33.6576 43.6868 32.3118 45.3766 30.3063C47.0664 28.3009 47.9953 25.764 48 23.1415V23.1398ZM29.144 44.567H10.288C8.57095 44.5699 6.91551 43.9272 5.65008 42.7666C4.38464 41.6059 3.60167 40.0121 3.45647 38.3011C3.31126 36.5902 3.81444 34.8871 4.86618 33.5298C5.91792 32.1725 7.44139 31.2601 9.13441 30.9736L10.2709 30.7816L10.5212 29.6571C10.9864 27.5648 12.1511 25.6937 13.8231 24.3526C15.4951 23.0115 17.5744 22.2806 19.7178 22.2806C21.8611 22.2806 23.9404 23.0115 25.6124 24.3526C27.2844 25.6937 28.4491 27.5648 28.9143 29.6571L29.1629 30.7816L30.2994 30.9753C31.9904 31.2641 33.5113 32.1774 34.5609 33.5343C35.6105 34.8912 36.1124 36.5927 35.9671 38.302C35.8218 40.0114 35.0399 41.6038 33.7763 42.764C32.5127 43.9243 30.8595 44.5678 29.144 44.567ZM36.8578 30.8536H36.7635C35.4815 29.4186 33.8201 28.3751 31.9707 27.8435C31.1503 25.2358 29.5195 22.9578 27.3154 21.3406C25.1113 19.7235 22.4489 18.8515 19.7152 18.8515C16.9815 18.8515 14.319 19.7235 12.115 21.3406C9.91089 22.9578 8.28008 25.2358 7.45965 27.8435C6.85024 28.0209 6.2586 28.2545 5.69233 28.5411C4.97789 27.8344 4.4103 26.9933 4.02226 26.0663C3.63422 25.1393 3.43339 24.1447 3.43133 23.1398C3.44016 21.203 4.17451 19.3398 5.48952 17.9179C6.80453 16.4959 8.6047 15.6184 10.5349 15.4585L11.9337 15.3488L12.1034 13.9569C12.4612 11.0531 13.8685 8.38039 16.0601 6.4422C18.2518 4.50401 21.0766 3.43415 24.0023 3.43415C26.9281 3.43415 29.7529 4.50401 31.9445 6.4422C34.1362 8.38039 35.5435 11.0531 35.9013 13.9569L36.071 15.3488L37.4681 15.4585C39.4583 15.61 41.3121 16.5276 42.6395 18.0181C43.967 19.5086 44.6646 21.4559 44.5855 23.4503C44.5065 25.4446 43.6569 27.3306 42.2157 28.7114C40.7744 30.0921 38.8538 30.8601 36.8578 30.8536Z" fill="white"/>
</g>
<defs>
<filter id="filter0_ii" x="-4" y="-4" width="56" height="55.9955" filterUnits="userSpaceOnUse" color-interpolation-filters="sRGB">
<feFlood flood-opacity="0" result="BackgroundImageFix"/>
<feBlend mode="normal" in="SourceGraphic" in2="BackgroundImageFix" result="shape"/>
<feColorMatrix in="SourceAlpha" type="matrix" values="0 0 0 0 0 0 0 0 0 0 0 0 0 0 0 0 0 0 127 0" result="hardAlpha"/>
<feOffset dx="4" dy="4"/>
<feGaussianBlur stdDeviation="2"/>
<feComposite in2="hardAlpha" operator="arithmetic" k2="-1" k3="1"/>
<feColorMatrix type="matrix" values="0 0 0 0 0 0 0 0 0 0 0 0 0 0 0 0 0 0 0.25 0"/>
<feBlend mode="normal" in2="shape" result="effect1_innerShadow"/>
<feColorMatrix in="SourceAlpha" type="matrix" values="0 0 0 0 0 0 0 0 0 0 0 0 0 0 0 0 0 0 127 0" result="hardAlpha"/>
<feOffset dx="-4" dy="-4"/>
<feGaussianBlur stdDeviation="2"/>
<feComposite in2="hardAlpha" operator="arithmetic" k2="-1" k3="1"/>
<feColorMatrix type="matrix" values="0 0 0 0 0 0 0 0 0 0 0 0 0 0 0 0 0 0 0.25 0"/>
<feBlend mode="normal" in2="effect1_innerShadow" result="effect2_innerShadow"/>
</filter>
</defs>
</svg>
