<svg width="48" height="48" viewBox="0 0 48 48" fill="none" xmlns="http://www.w3.org/2000/svg">
<path d="M4.46 25.28L14.46 37.28C14.648 37.5058 14.8835 37.6873 15.1497 37.8118C15.4159 37.9362 15.7062 38.0005 16 38L38 38C39.5913 38 41.1174 37.3679 42.2426 36.2426C43.3679 35.1174 44 33.5913 44 32L44 16C44 14.4087 43.3679 12.8826 42.2426 11.7574C41.1174 10.6321 39.5913 9.99999 38 9.99999L16 10C15.7062 9.99952 15.4159 10.0638 15.1497 10.1882C14.8835 10.3127 14.648 10.4942 14.46 10.72L4.46 22.72C4.16067 23.0794 3.99675 23.5323 3.99675 24C3.99675 24.4677 4.16067 24.9206 4.46 25.28ZM16.94 14L38 14C38.5304 14 39.0391 14.2107 39.4142 14.5858C39.7893 14.9609 40 15.4696 40 16L40 32C40 32.5304 39.7893 33.0391 39.4142 33.4142C39.0391 33.7893 38.5304 34 38 34L16.94 34L8.6 24L16.94 14ZM22.58 29.42C22.7659 29.6075 22.9871 29.7562 23.2308 29.8578C23.4746 29.9593 23.736 30.0116 24 30.0116C24.264 30.0116 24.5254 29.9593 24.7692 29.8578C25.0129 29.7562 25.2341 29.6075 25.42 29.42L28 26.82L30.58 29.42C30.9566 29.7966 31.4674 30.0082 32 30.0082C32.5326 30.0082 33.0434 29.7966 33.42 29.42C33.7966 29.0434 34.0082 28.5326 34.0082 28C34.0082 27.7363 33.9562 27.4751 33.8553 27.2315C33.7544 26.9879 33.6065 26.7665 33.42 26.58L30.82 24L33.42 21.42C33.6075 21.2341 33.7562 21.0129 33.8578 20.7692C33.9593 20.5254 34.0116 20.264 34.0116 20C34.0116 19.736 33.9593 19.4746 33.8578 19.2308C33.7562 18.9871 33.6075 18.7659 33.42 18.58C33.2341 18.3925 33.0129 18.2438 32.7692 18.1422C32.5254 18.0407 32.264 17.9884 32 17.9884C31.736 17.9884 31.4746 18.0407 31.2308 18.1422C30.9871 18.2438 30.7659 18.3925 30.58 18.58L28 21.18L25.42 18.58C25.2341 18.3925 25.0129 18.2438 24.7692 18.1422C24.5254 18.0407 24.264 17.9884 24 17.9884C23.736 17.9884 23.4746 18.0407 23.2308 18.1422C22.9871 18.2438 22.7659 18.3925 22.58 18.58C22.3925 18.7659 22.2438 18.9871 22.1422 19.2308C22.0407 19.4746 21.9884 19.736 21.9884 20C21.9884 20.264 22.0407 20.5254 22.1422 20.7692C22.2438 21.0129 22.3925 21.2341 22.58 21.42L25.18 24L22.58 26.58C22.3925 26.7659 22.2438 26.9871 22.1422 27.2308C22.0407 27.4746 21.9884 27.736 21.9884 28C21.9884 28.264 22.0407 28.5254 22.1422 28.7692C22.2438 29.0129 22.3925 29.2341 22.58 29.42Z" fill="url(#paint0_linear)"/>
<defs>
<linearGradient id="paint0_linear" x1="23.9984" y1="38" x2="23.9984" y2="9.99999" gradientUnits="userSpaceOnUse">
<stop stop-color="#F9F047"/>
<stop offset="1" stop-color="#0FD850"/>
</linearGradient>
</defs>
</svg>
