<svg width="64" height="64" viewBox="0 0 64 64" fill="none" xmlns="http://www.w3.org/2000/svg">
<path d="M5.94675 33.7067L19.2801 49.7067C19.5308 50.0078 19.8448 50.2498 20.1997 50.4158C20.5546 50.5817 20.9417 50.6674 21.3334 50.6667L50.6667 50.6667C52.7885 50.6667 54.8233 49.8239 56.3236 48.3236C57.8239 46.8233 58.6667 44.7885 58.6667 42.6667L58.6667 21.3334C58.6667 19.2117 57.8239 17.1768 56.3236 15.6765C54.8233 14.1763 52.7885 13.3334 50.6667 13.3334L21.3334 13.3334C20.9417 13.3328 20.5546 13.4185 20.1997 13.5844C19.8448 13.7503 19.5308 13.9924 19.2801 14.2934L5.94675 30.2934C5.54764 30.7726 5.32908 31.3765 5.32908 32.0001C5.32908 32.6237 5.54764 33.2276 5.94675 33.7067ZM22.5867 18.6667L50.6667 18.6667C51.374 18.6667 52.0523 18.9477 52.5524 19.4478C53.0525 19.9479 53.3334 20.6262 53.3334 21.3334L53.3334 42.6667C53.3334 43.374 53.0525 44.0523 52.5524 44.5524C52.0523 45.0525 51.374 45.3334 50.6667 45.3334L22.5867 45.3334L11.4667 32.0001L22.5867 18.6667ZM30.1067 39.2267C30.3546 39.4767 30.6496 39.6751 30.9745 39.8105C31.2995 39.9458 31.6481 40.0155 32.0001 40.0155C32.3521 40.0155 32.7007 39.9458 33.0256 39.8105C33.3506 39.6751 33.6455 39.4767 33.8934 39.2267L37.3334 35.7601L40.7734 39.2267C41.2756 39.7289 41.9566 40.011 42.6667 40.011C43.3769 40.011 44.0579 39.7289 44.5601 39.2267C45.0622 38.7246 45.3443 38.0435 45.3443 37.3334C45.3443 36.9818 45.2751 36.6336 45.1405 36.3087C45.0059 35.9839 44.8087 35.6887 44.5601 35.4401L41.0934 32.0001L44.5601 28.5601C44.81 28.3122 45.0084 28.0172 45.1438 27.6923C45.2792 27.3673 45.3489 27.0188 45.3489 26.6667C45.3489 26.3147 45.2792 25.9662 45.1438 25.6412C45.0084 25.3162 44.81 25.0213 44.5601 24.7734C44.3122 24.5235 44.0172 24.3251 43.6923 24.1897C43.3673 24.0543 43.0188 23.9846 42.6667 23.9846C42.3147 23.9846 41.9662 24.0543 41.6412 24.1897C41.3163 24.3251 41.0213 24.5235 40.7734 24.7734L37.3334 28.2401L33.8934 24.7734C33.6455 24.5235 33.3506 24.3251 33.0256 24.1897C32.7007 24.0543 32.3521 23.9846 32.0001 23.9846C31.648 23.9846 31.2995 24.0543 30.9745 24.1897C30.6496 24.3251 30.3546 24.5235 30.1067 24.7734C29.8568 25.0213 29.6584 25.3162 29.523 25.6412C29.3877 25.9662 29.318 26.3147 29.318 26.6667C29.318 27.0188 29.3877 27.3673 29.523 27.6923C29.6584 28.0172 29.8568 28.3122 30.1067 28.5601L33.5734 32.0001L30.1067 35.4401C29.8568 35.688 29.6584 35.9829 29.523 36.3079C29.3877 36.6328 29.318 36.9814 29.318 37.3334C29.318 37.6854 29.3877 38.034 29.523 38.3589C29.6584 38.6839 29.8568 38.9788 30.1067 39.2267Z" fill="url(#paint0_linear)"/>
<defs>
<linearGradient id="paint0_linear" x1="31.9979" y1="50.6668" x2="31.9979" y2="13.3334" gradientUnits="userSpaceOnUse">
<stop offset="0.117708" stop-color="#4E4376"/>
<stop offset="1" stop-color="#2B5876"/>
</linearGradient>
</defs>
</svg>
