<svg width="64" height="64" viewBox="0 0 64 64" fill="none" xmlns="http://www.w3.org/2000/svg">
<path fill-rule="evenodd" clip-rule="evenodd" d="M51.3092 49.3666C47.4428 50.8725 43.2151 51.2602 39.0664 50.4847C36.2047 49.9592 33.4749 48.8739 31.0335 47.2911C28.5922 45.7083 26.4873 43.6592 24.8395 41.2612H38.8555L41.3666 33.9125H21.6734C21.1187 31.3521 21.0778 28.7071 21.5529 26.1308H38.7878L41.2913 18.8838H24.4744C29.0184 11.9303 37.7111 8.02259 46.6937 9.70541L48.3953 0.647526C33.4005 -2.16471 18.9515 5.80141 13.681 18.8875H6.33225L3.82495 26.1346H11.8362C11.5125 28.7699 11.5464 31.3826 11.9304 33.9162H6.38872L3.87389 41.2649H14.0574C18.0442 50.3755 26.545 57.5247 37.3534 59.5464C43.2866 60.6753 49.4177 60.1144 55.0475 57.9275L51.3092 49.3666Z" fill="white"/>
</svg>
