<svg width="53" height="61" viewBox="0 0 53 61" fill="none" xmlns="http://www.w3.org/2000/svg">
<path fill-rule="evenodd" clip-rule="evenodd" d="M48.3092 49.3666C44.4428 50.8725 40.2151 51.2602 36.0664 50.4847C33.2047 49.9592 30.4749 48.8739 28.0335 47.2911C25.5922 45.7083 23.4873 43.6592 21.8395 41.2612H35.8555L38.3666 33.9125H18.6734C18.1187 31.3521 18.0778 28.7071 18.5529 26.1308H35.7878L38.2913 18.8838H21.4744C26.0184 11.9303 34.7111 8.02259 43.6937 9.70541L45.3953 0.647526C30.4005 -2.16471 15.9515 5.80141 10.681 18.8875H3.33225L0.824951 26.1346H8.83625C8.51248 28.7699 8.54636 31.3826 8.93036 33.9162H3.38872L0.873892 41.2649H11.0574C15.0442 50.3755 23.545 57.5247 34.3534 59.5464C40.2866 60.6753 46.4177 60.1144 52.0475 57.9275L48.3092 49.3666Z" fill="url(#paint0_linear)"/>
<defs>
<linearGradient id="paint0_linear" x1="26.4362" y1="0.0839539" x2="26.4362" y2="60.1144" gradientUnits="userSpaceOnUse">
<stop stop-color="#F9F047"/>
<stop offset="1" stop-color="#0FD850"/>
</linearGradient>
</defs>
</svg>
