<svg width="64" height="29" viewBox="0 0 64 29" fill="none" xmlns="http://www.w3.org/2000/svg">
<path d="M60.4444 0H55.1111V9.73913C55.1111 10.2283 54.7133 10.6245 54.2222 10.6245H52.4444C51.9533 10.6245 51.5556 10.2283 51.5556 9.73913V0H44.4444V9.73913C44.4444 10.2283 44.0467 10.6245 43.5556 10.6245H41.7778C41.2867 10.6245 40.8889 10.2283 40.8889 9.73913V0H33.7778V9.73913C33.7778 10.2283 33.38 10.6245 32.8889 10.6245H31.1111C30.62 10.6245 30.2222 10.2283 30.2222 9.73913V0H23.1111V9.73913C23.1111 10.2283 22.7133 10.6245 22.2222 10.6245H20.4444C19.9533 10.6245 19.5556 10.2283 19.5556 9.73913V0H12.4444V9.73913C12.4444 10.2283 12.0467 10.6245 11.5556 10.6245H9.77778C9.28667 10.6245 8.88889 10.2283 8.88889 9.73913V0H3.55556C1.59222 0 0 1.58593 0 3.5415V24.7905C0 26.7461 1.59222 28.332 3.55556 28.332H60.4444C62.4078 28.332 64 26.7461 64 24.7905V3.5415C64 1.58593 62.4078 0 60.4444 0Z" fill="white"/>
</svg>
