<svg width="135" height="46" viewBox="0 0 135 46" fill="none" xmlns="http://www.w3.org/2000/svg">
<g clip-path="url(#clip0)" filter="url(#filter0_ii)">
<path d="M70.6116 19.4371V21.2739H60.8854V19.4371C60.8854 18.5844 59.8545 18.1573 59.2515 18.7603L55.8194 22.1924C55.4456 22.5662 55.4456 23.1721 55.8194 23.5459L59.2515 26.978C59.8544 27.581 60.8854 27.1539 60.8854 26.3012V24.4644H70.6116V26.3012C70.6116 27.154 71.6425 27.581 72.2455 26.9781L75.6776 23.546C76.0514 23.1722 76.0514 22.5662 75.6776 22.1924L72.2455 18.7603C71.6426 18.1573 70.6116 18.5844 70.6116 19.4371V19.4371Z" fill="white"/>
</g>
<g clip-path="url(#clip1)" filter="url(#filter1_ii)">
<path d="M7.14648 11.5366H35.937" stroke="white"/>
<path d="M41.5522 11.5366H44.513" stroke="white"/>
<path d="M48.7896 11.4346H44.4847V19.2958C44.4847 19.6907 44.1636 20.0105 43.7672 20.0105H42.3322C41.9358 20.0105 41.6147 19.6907 41.6147 19.2958V11.4346H35.8747V19.2958C35.8747 19.6907 35.5536 20.0105 35.1572 20.0105H33.7222C33.3258 20.0105 33.0047 19.6907 33.0047 19.2958V11.4346H27.2648V19.2958C27.2648 19.6907 26.9437 20.0105 26.5473 20.0105H25.1123C24.7159 20.0105 24.3948 19.6907 24.3948 19.2958V11.4346H18.6549V19.2958C18.6549 19.6907 18.3338 20.0105 17.9374 20.0105H16.5024C16.106 20.0105 15.7849 19.6907 15.7849 19.2958V11.4346H10.0449V19.2958C10.0449 19.6907 9.72384 20.0105 9.32743 20.0105H7.89244C7.49602 20.0105 7.17495 19.6907 7.17495 19.2958V11.4346H2.86998C1.28521 11.4346 0 12.7147 0 14.2932V31.445C0 33.0235 1.28521 34.3036 2.86998 34.3036H48.7896C50.3744 34.3036 51.6596 33.0235 51.6596 31.445V14.2932C51.6596 12.7147 50.3744 11.4346 48.7896 11.4346Z" fill="white"/>
<path d="M20.5344 34V20.88H22.5344L25.0544 27.88C25.2144 28.3333 25.3677 28.7933 25.5144 29.26C25.6744 29.7133 25.8344 30.1667 25.9944 30.62H26.0744C26.2344 30.1667 26.381 29.7133 26.5144 29.26C26.661 28.7933 26.8144 28.3333 26.9744 27.88L29.4544 20.88H31.4744V34H29.9144V26.78C29.9144 26.1933 29.941 25.5467 29.9944 24.84C30.0477 24.1333 30.0944 23.4867 30.1344 22.9H30.0544L29.0144 25.88L26.5344 32.68H25.4344L22.9544 25.88L21.9144 22.9H21.8344C21.8744 23.4867 21.9144 24.1333 21.9544 24.84C22.0077 25.5467 22.0344 26.1933 22.0344 26.78V34H20.5344Z" fill="url(#paint0_linear)"/>
</g>
<path d="M131.69 11.4346H127.385V19.2958C127.385 19.6907 127.064 20.0105 126.668 20.0105H125.233C124.836 20.0105 124.515 19.6907 124.515 19.2958V11.4346H118.775V19.2958C118.775 19.6907 118.454 20.0105 118.058 20.0105H116.623C116.226 20.0105 115.905 19.6907 115.905 19.2958V11.4346H110.165V19.2958C110.165 19.6907 109.844 20.0105 109.448 20.0105H108.013C107.616 20.0105 107.295 19.6907 107.295 19.2958V11.4346H101.555V19.2958C101.555 19.6907 101.234 20.0105 100.838 20.0105H99.4028C99.0063 20.0105 98.6853 19.6907 98.6853 19.2958V11.4346H92.9453V19.2958C92.9453 19.6907 92.6242 20.0105 92.2278 20.0105H90.7928C90.3964 20.0105 90.0753 19.6907 90.0753 19.2958V11.4346H85.7704C84.1856 11.4346 82.9004 12.7147 82.9004 14.2932V31.445C82.9004 33.0235 84.1856 34.3036 85.7704 34.3036H131.69C133.275 34.3036 134.56 33.0235 134.56 31.445V14.2932C134.56 12.7147 133.275 11.4346 131.69 11.4346Z" fill="white"/>
<path d="M103.731 34.24C103.065 34.24 102.438 34.1467 101.851 33.96C101.278 33.76 100.778 33.44 100.351 33C99.9382 32.5467 99.6115 31.96 99.3715 31.24C99.1315 30.52 99.0115 29.6333 99.0115 28.58V20.88H100.671V28.62C100.671 29.4067 100.751 30.0667 100.911 30.6C101.071 31.1333 101.285 31.56 101.551 31.88C101.831 32.2 102.158 32.4333 102.531 32.58C102.905 32.7133 103.305 32.78 103.731 32.78C104.171 32.78 104.578 32.7133 104.951 32.58C105.325 32.4333 105.651 32.2 105.931 31.88C106.211 31.56 106.431 31.1333 106.591 30.6C106.751 30.0667 106.831 29.4067 106.831 28.62V20.88H108.431V28.58C108.431 29.6333 108.311 30.52 108.071 31.24C107.831 31.96 107.498 32.5467 107.071 33C106.658 33.44 106.165 33.76 105.591 33.96C105.018 34.1467 104.398 34.24 103.731 34.24ZM113.91 26.66L113.29 28.66H117.23L116.61 26.66C116.37 25.9267 116.143 25.2 115.93 24.48C115.716 23.7467 115.503 23 115.29 22.24H115.21C115.01 23 114.803 23.7467 114.59 24.48C114.376 25.2 114.15 25.9267 113.91 26.66ZM109.91 34L114.35 20.88H116.23L120.67 34H118.89L117.65 30H112.87L111.61 34H109.91Z" fill="url(#paint1_linear)"/>
<defs>
<filter id="filter0_ii" x="51.5391" y="8.65967" width="24.4188" height="24.4188" filterUnits="userSpaceOnUse" color-interpolation-filters="sRGB">
<feFlood flood-opacity="0" result="BackgroundImageFix"/>
<feBlend mode="normal" in="SourceGraphic" in2="BackgroundImageFix" result="shape"/>
<feColorMatrix in="SourceAlpha" type="matrix" values="0 0 0 0 0 0 0 0 0 0 0 0 0 0 0 0 0 0 127 0" result="hardAlpha"/>
<feOffset dy="-12"/>
<feGaussianBlur stdDeviation="2"/>
<feComposite in2="hardAlpha" operator="arithmetic" k2="-1" k3="1"/>
<feColorMatrix type="matrix" values="0 0 0 0 0.32549 0 0 0 0 0.470588 0 0 0 0 0.584314 0 0 0 0.15 0"/>
<feBlend mode="normal" in2="shape" result="effect1_innerShadow"/>
<feColorMatrix in="SourceAlpha" type="matrix" values="0 0 0 0 0 0 0 0 0 0 0 0 0 0 0 0 0 0 127 0" result="hardAlpha"/>
<feOffset dx="-12"/>
<feGaussianBlur stdDeviation="2"/>
<feComposite in2="hardAlpha" operator="arithmetic" k2="-1" k3="1"/>
<feColorMatrix type="matrix" values="0 0 0 0 0.0352941 0 0 0 0 0.12549 0 0 0 0 0.247059 0 0 0 0.15 0"/>
<feBlend mode="normal" in2="effect1_innerShadow" result="effect2_innerShadow"/>
</filter>
<filter id="filter1_ii" x="-4" y="-4" width="55.6596" height="49.7381" filterUnits="userSpaceOnUse" color-interpolation-filters="sRGB">
<feFlood flood-opacity="0" result="BackgroundImageFix"/>
<feBlend mode="normal" in="SourceGraphic" in2="BackgroundImageFix" result="shape"/>
<feColorMatrix in="SourceAlpha" type="matrix" values="0 0 0 0 0 0 0 0 0 0 0 0 0 0 0 0 0 0 127 0" result="hardAlpha"/>
<feOffset dy="-12"/>
<feGaussianBlur stdDeviation="2"/>
<feComposite in2="hardAlpha" operator="arithmetic" k2="-1" k3="1"/>
<feColorMatrix type="matrix" values="0 0 0 0 0.32549 0 0 0 0 0.470588 0 0 0 0 0.584314 0 0 0 0.15 0"/>
<feBlend mode="normal" in2="shape" result="effect1_innerShadow"/>
<feColorMatrix in="SourceAlpha" type="matrix" values="0 0 0 0 0 0 0 0 0 0 0 0 0 0 0 0 0 0 127 0" result="hardAlpha"/>
<feOffset dx="-12"/>
<feGaussianBlur stdDeviation="2"/>
<feComposite in2="hardAlpha" operator="arithmetic" k2="-1" k3="1"/>
<feColorMatrix type="matrix" values="0 0 0 0 0.0352941 0 0 0 0 0.12549 0 0 0 0 0.247059 0 0 0 0.15 0"/>
<feBlend mode="normal" in2="effect1_innerShadow" result="effect2_innerShadow"/>
</filter>
<linearGradient id="paint0_linear" x1="26" y1="14" x2="26" y2="34" gradientUnits="userSpaceOnUse">
<stop offset="0.138542" stop-color="#4E4376"/>
<stop offset="1" stop-color="#2B5876"/>
</linearGradient>
<linearGradient id="paint1_linear" x1="109" y1="14" x2="109" y2="27" gradientUnits="userSpaceOnUse">
<stop offset="0.138542" stop-color="#4E4376"/>
<stop offset="1" stop-color="#2B5876"/>
</linearGradient>
<clipPath id="clip0">
<rect width="20.4188" height="20.4188" fill="white" transform="translate(55.5391 12.6597)"/>
</clipPath>
<clipPath id="clip1">
<rect width="51.6596" height="45.7381" fill="white"/>
</clipPath>
</defs>
</svg>
