<svg width="135" height="51" viewBox="0 0 135 51" fill="none" xmlns="http://www.w3.org/2000/svg">
<g clip-path="url(#clip0)" filter="url(#filter0_ii)">
<path d="M72.0238 31.783V33.4799H63.0387V31.783C63.0387 30.9952 62.0863 30.6007 61.5292 31.1577L58.3586 34.3283C58.0133 34.6736 58.0133 35.2335 58.3586 35.5788L61.5292 38.7494C62.0862 39.3064 63.0387 38.9119 63.0387 38.1241V36.4273H72.0238V38.1242C72.0238 38.9119 72.9762 39.3064 73.5333 38.7494L76.7039 35.5788C77.0492 35.2335 77.0492 34.6737 76.7039 34.3284L73.5333 31.1578C72.9763 30.6007 72.0238 30.9952 72.0238 31.783V31.783Z" fill="white"/>
</g>
<path d="M11.9763 29.8218C11.7686 29.5896 11.5061 29.413 11.2127 29.3082C10.9193 29.2033 10.6043 29.1735 10.2964 29.2215C9.98858 29.2695 9.69761 29.3937 9.45002 29.5829C9.20244 29.772 9.00611 30.0201 8.87891 30.3046C8.75171 30.589 8.69768 30.9007 8.72174 31.2114C8.7458 31.522 8.84718 31.8217 9.01666 32.0832C9.18615 32.3446 9.41834 32.5595 9.69209 32.7083C9.96585 32.8571 10.2725 32.935 10.5841 32.935H18.0557" stroke="white" stroke-width="2" stroke-linecap="round" stroke-linejoin="round"/>
<path d="M5.12792 32.9351C4.9202 32.7029 4.65769 32.5263 4.36428 32.4215C4.07088 32.3166 3.7559 32.2868 3.44804 32.3348C3.14018 32.3828 2.84921 32.507 2.60162 32.6961C2.35404 32.8853 2.1577 33.1334 2.0305 33.4178C1.9033 33.7023 1.84927 34.014 1.87333 34.3246C1.89739 34.6353 1.99877 34.935 2.16826 35.1964C2.33774 35.4579 2.56993 35.6728 2.84369 35.8216C3.11745 35.9704 3.42407 36.0483 3.73565 36.0483H17.4336" stroke="white" stroke-width="2" stroke-linecap="round" stroke-linejoin="round"/>
<path d="M9.48595 42.2748C9.27823 42.507 9.01572 42.6836 8.72231 42.7885C8.42891 42.8933 8.11393 42.9231 7.80607 42.8752C7.4982 42.8272 7.20723 42.703 6.95965 42.5138C6.71206 42.3246 6.51573 42.0765 6.38853 41.7921C6.26132 41.5077 6.20729 41.1959 6.23135 40.8853C6.25541 40.5746 6.3568 40.275 6.52628 40.0135C6.69576 39.752 6.92795 39.5371 7.20171 39.3884C7.47547 39.2396 7.7821 39.1616 8.09368 39.1616H16.8105" stroke="white" stroke-width="2" stroke-linecap="round" stroke-linejoin="round"/>
<path d="M51.708 32.9195H43.7383V27.9385H49.0411C49.2402 27.9385 49.4347 27.9981 49.5996 28.1098C49.7645 28.2214 49.8921 28.3798 49.9661 28.5647L51.708 32.9195Z" stroke="white" stroke-width="3" stroke-linecap="round" stroke-linejoin="round"/>
<path d="M23.8135 35.9082H43.7378" stroke="white" stroke-width="3" stroke-linecap="round" stroke-linejoin="round"/>
<path d="M44.2357 44.8743C45.8863 44.8743 47.2244 43.5362 47.2244 41.8856C47.2244 40.235 45.8863 38.897 44.2357 38.897C42.5851 38.897 41.2471 40.235 41.2471 41.8856C41.2471 43.5362 42.5851 44.8743 44.2357 44.8743Z" stroke="white" stroke-width="3" stroke-linecap="round" stroke-linejoin="round"/>
<path d="M31.2855 44.8743C32.9361 44.8743 34.2742 43.5362 34.2742 41.8856C34.2742 40.235 32.9361 38.897 31.2855 38.897C29.6349 38.897 28.2969 40.235 28.2969 41.8856C28.2969 43.5362 29.6349 44.8743 31.2855 44.8743Z" stroke="white" stroke-width="3" stroke-linecap="round" stroke-linejoin="round"/>
<path d="M41.2479 41.8857H34.2744" stroke="white" stroke-width="3" stroke-linecap="round" stroke-linejoin="round"/>
<path d="M28.4839 41.9394H24.9972C24.733 41.9394 24.4796 41.8345 24.2928 41.6476C24.1059 41.4608 24.001 41.2074 24.001 40.9432V26.9962C24.001 26.732 24.1059 26.4786 24.2928 26.2918C24.4796 26.105 24.733 26 24.9972 26H43.9253V38.9921" stroke="white" stroke-width="3" stroke-linecap="round" stroke-linejoin="round"/>
<path d="M44.001 39.0186V33H51.9707V40.9697C51.9707 41.2339 51.8657 41.4873 51.6789 41.6741C51.4921 41.861 51.2387 41.9659 50.9745 41.9659H47.4877" stroke="white" stroke-width="3" stroke-linecap="round" stroke-linejoin="round"/>
<path d="M8.8 20V6.88H10.46V13.46H10.52L15.98 6.88H17.86L13.76 11.88L18.5 20H16.64L12.72 13.18L10.46 15.84V20H8.8ZM20.382 20V6.88H22.382L24.902 13.88C25.062 14.3333 25.2154 14.7933 25.362 15.26C25.522 15.7133 25.682 16.1667 25.842 16.62H25.922C26.082 16.1667 26.2287 15.7133 26.362 15.26C26.5087 14.7933 26.662 14.3333 26.822 13.88L29.302 6.88H31.322V20H29.762V12.78C29.762 12.1933 29.7887 11.5467 29.842 10.84C29.8954 10.1333 29.942 9.48667 29.982 8.9H29.902L28.862 11.88L26.382 18.68H25.282L22.802 11.88L21.762 8.9H21.682C21.722 9.48667 21.762 10.1333 21.802 10.84C21.8554 11.5467 21.882 12.1933 21.882 12.78V20H20.382ZM33.3133 23.2L38.6533 5.8H39.8533L34.5133 23.2H33.3133ZM41.9055 20V6.88H43.5655V12.38H49.6655V6.88H51.3455V20H49.6655V13.82H43.5655V20H41.9055Z" fill="white"/>
<path d="M93.2771 29.8941C93.0694 29.6619 92.8069 29.4853 92.5135 29.3804C92.2201 29.2756 91.9051 29.2458 91.5972 29.2938C91.2894 29.3417 90.9984 29.466 90.7508 29.6551C90.5032 29.8443 90.3069 30.0924 90.1797 30.3768C90.0525 30.6613 89.9985 30.973 90.0225 31.2836C90.0466 31.5943 90.148 31.894 90.3174 32.1554C90.4869 32.4169 90.7191 32.6318 90.9929 32.7806C91.2666 32.9294 91.5733 33.0073 91.8848 33.0073H99.3564" stroke="white" stroke-width="2" stroke-linecap="round" stroke-linejoin="round"/>
<path d="M86.4287 33.0074C86.221 32.7752 85.9585 32.5986 85.6651 32.4937C85.3717 32.3889 85.0567 32.3591 84.7488 32.407C84.441 32.455 84.15 32.5792 83.9024 32.7684C83.6548 32.9576 83.4585 33.2057 83.3313 33.4901C83.2041 33.7745 83.1501 34.0863 83.1741 34.3969C83.1982 34.7076 83.2996 35.0073 83.469 35.2687C83.6385 35.5302 83.8707 35.7451 84.1445 35.8939C84.4182 36.0426 84.7249 36.1206 85.0364 36.1206H98.7344" stroke="white" stroke-width="2" stroke-linecap="round" stroke-linejoin="round"/>
<path d="M90.7867 42.3471C90.579 42.5793 90.3165 42.7559 90.0231 42.8607C89.7297 42.9656 89.4147 42.9954 89.1068 42.9474C88.799 42.8995 88.508 42.7752 88.2604 42.5861C88.0128 42.3969 87.8165 42.1488 87.6893 41.8644C87.5621 41.5799 87.5081 41.2682 87.5321 40.9576C87.5562 40.6469 87.6576 40.3472 87.8271 40.0858C87.9965 39.8243 88.2287 39.6094 88.5025 39.4606C88.7762 39.3118 89.0829 39.2339 89.3945 39.2339H98.1113" stroke="white" stroke-width="2" stroke-linecap="round" stroke-linejoin="round"/>
<path d="M133.008 33.1085H125.038V28.1274H130.341C130.54 28.1274 130.735 28.1871 130.899 28.2987C131.064 28.4103 131.192 28.5688 131.266 28.7537L133.008 33.1085Z" stroke="white" stroke-width="3" stroke-linecap="round" stroke-linejoin="round"/>
<path d="M105.113 36.0972H125.038" stroke="white" stroke-width="3" stroke-linecap="round" stroke-linejoin="round"/>
<path d="M125.536 45.0632C127.186 45.0632 128.524 43.7252 128.524 42.0746C128.524 40.424 127.186 39.0859 125.536 39.0859C123.885 39.0859 122.547 40.424 122.547 42.0746C122.547 43.7252 123.885 45.0632 125.536 45.0632Z" stroke="white" stroke-width="3" stroke-linecap="round" stroke-linejoin="round"/>
<path d="M112.585 45.0632C114.236 45.0632 115.574 43.7252 115.574 42.0746C115.574 40.424 114.236 39.0859 112.585 39.0859C110.935 39.0859 109.597 40.424 109.597 42.0746C109.597 43.7252 110.935 45.0632 112.585 45.0632Z" stroke="white" stroke-width="3" stroke-linecap="round" stroke-linejoin="round"/>
<path d="M122.548 42.0747H115.574" stroke="white" stroke-width="3" stroke-linecap="round" stroke-linejoin="round"/>
<path d="M109.784 42.1284H106.297C106.033 42.1284 105.779 42.0234 105.593 41.8366C105.406 41.6498 105.301 41.3964 105.301 41.1322V27.1852C105.301 26.921 105.406 26.6676 105.593 26.4807C105.779 26.2939 106.033 26.189 106.297 26.189H125.225V39.1811" stroke="white" stroke-width="3" stroke-linecap="round" stroke-linejoin="round"/>
<path d="M125.301 39.2076V33.189H133.27V41.1587C133.27 41.4229 133.166 41.6763 132.979 41.8631C132.792 42.0499 132.538 42.1549 132.274 42.1549H128.788" stroke="white" stroke-width="3" stroke-linecap="round" stroke-linejoin="round"/>
<path d="M102.8 20V6.88H104.8L107.32 13.88C107.48 14.3333 107.633 14.7933 107.78 15.26C107.94 15.7133 108.1 16.1667 108.26 16.62H108.34C108.5 16.1667 108.647 15.7133 108.78 15.26C108.927 14.7933 109.08 14.3333 109.24 13.88L111.72 6.88H113.74V20H112.18V12.78C112.18 12.1933 112.207 11.5467 112.26 10.84C112.313 10.1333 112.36 9.48667 112.4 8.9H112.32L111.28 11.88L108.8 18.68H107.7L105.22 11.88L104.18 8.9H104.1C104.14 9.48667 104.18 10.1333 104.22 10.84C104.273 11.5467 104.3 12.1933 104.3 12.78V20H102.8ZM115.731 23.2L121.071 5.8H122.271L116.931 23.2H115.731ZM127.963 20.24C127.043 20.24 126.19 20.0667 125.403 19.72C124.617 19.3733 123.937 18.9 123.363 18.3L124.363 17.14C124.83 17.6333 125.377 18.0333 126.003 18.34C126.643 18.6333 127.303 18.78 127.983 18.78C128.85 18.78 129.523 18.5867 130.003 18.2C130.483 17.8 130.723 17.28 130.723 16.64C130.723 16.3067 130.663 16.0267 130.543 15.8C130.437 15.56 130.283 15.36 130.083 15.2C129.897 15.0267 129.67 14.8733 129.403 14.74C129.137 14.6067 128.85 14.4667 128.543 14.32L126.663 13.5C126.357 13.3667 126.043 13.2067 125.723 13.02C125.403 12.8333 125.117 12.6067 124.863 12.34C124.61 12.0733 124.403 11.76 124.243 11.4C124.083 11.0267 124.003 10.6 124.003 10.12C124.003 9.62667 124.103 9.16667 124.303 8.74C124.517 8.31333 124.803 7.94667 125.163 7.64C125.537 7.32 125.97 7.07333 126.463 6.9C126.97 6.72667 127.523 6.64 128.123 6.64C128.91 6.64 129.637 6.79333 130.303 7.1C130.97 7.39333 131.537 7.78 132.003 8.26L131.103 9.34C130.703 8.95333 130.257 8.65333 129.763 8.44C129.283 8.21333 128.737 8.1 128.123 8.1C127.39 8.1 126.797 8.27333 126.343 8.62C125.903 8.95333 125.683 9.42 125.683 10.02C125.683 10.34 125.743 10.6133 125.863 10.84C125.997 11.0533 126.17 11.2467 126.383 11.42C126.597 11.58 126.83 11.7267 127.083 11.86C127.337 11.98 127.597 12.0933 127.863 12.2L129.723 13C130.097 13.16 130.45 13.3467 130.783 13.56C131.117 13.76 131.403 14 131.643 14.28C131.883 14.5467 132.07 14.8667 132.203 15.24C132.35 15.6 132.423 16.02 132.423 16.5C132.423 17.02 132.317 17.5067 132.103 17.96C131.903 18.4133 131.61 18.8133 131.223 19.16C130.837 19.4933 130.37 19.76 129.823 19.96C129.277 20.1467 128.657 20.24 127.963 20.24Z" fill="white"/>
<defs>
<filter id="filter0_ii" x="54.0996" y="21.522" width="22.8632" height="22.8632" filterUnits="userSpaceOnUse" color-interpolation-filters="sRGB">
<feFlood flood-opacity="0" result="BackgroundImageFix"/>
<feBlend mode="normal" in="SourceGraphic" in2="BackgroundImageFix" result="shape"/>
<feColorMatrix in="SourceAlpha" type="matrix" values="0 0 0 0 0 0 0 0 0 0 0 0 0 0 0 0 0 0 127 0" result="hardAlpha"/>
<feOffset dy="-12"/>
<feGaussianBlur stdDeviation="2"/>
<feComposite in2="hardAlpha" operator="arithmetic" k2="-1" k3="1"/>
<feColorMatrix type="matrix" values="0 0 0 0 0.32549 0 0 0 0 0.470588 0 0 0 0 0.584314 0 0 0 0.15 0"/>
<feBlend mode="normal" in2="shape" result="effect1_innerShadow"/>
<feColorMatrix in="SourceAlpha" type="matrix" values="0 0 0 0 0 0 0 0 0 0 0 0 0 0 0 0 0 0 127 0" result="hardAlpha"/>
<feOffset dx="-12"/>
<feGaussianBlur stdDeviation="2"/>
<feComposite in2="hardAlpha" operator="arithmetic" k2="-1" k3="1"/>
<feColorMatrix type="matrix" values="0 0 0 0 0.0352941 0 0 0 0 0.12549 0 0 0 0 0.247059 0 0 0 0.15 0"/>
<feBlend mode="normal" in2="effect1_innerShadow" result="effect2_innerShadow"/>
</filter>
<clipPath id="clip0">
<rect width="18.8632" height="18.8632" fill="white" transform="translate(58.0996 25.522)"/>
</clipPath>
</defs>
</svg>
