<svg width="64" height="38" viewBox="0 0 64 38" fill="none" xmlns="http://www.w3.org/2000/svg">
<path d="M14.2744 13.9785C14.0269 13.7018 13.714 13.4913 13.3643 13.3663C13.0146 13.2414 12.6392 13.2059 12.2723 13.263C11.9054 13.3202 11.5586 13.4683 11.2635 13.6937C10.9685 13.9192 10.7345 14.2149 10.5829 14.5538C10.4313 14.8928 10.3669 15.2644 10.3956 15.6346C10.4242 16.0048 10.5451 16.362 10.7471 16.6736C10.9491 16.9852 11.2258 17.2413 11.5521 17.4187C11.8783 17.596 12.2438 17.6889 12.6151 17.6889H21.5199" stroke="white" stroke-linecap="round" stroke-linejoin="round"/>
<path d="M6.11172 17.6889C5.86416 17.4121 5.55129 17.2016 5.20161 17.0767C4.85192 16.9517 4.47653 16.9162 4.10961 16.9734C3.7427 17.0305 3.39591 17.1786 3.10084 17.404C2.80576 17.6295 2.57177 17.9252 2.42017 18.2642C2.26857 18.6032 2.20417 18.9747 2.23285 19.3449C2.26152 19.7152 2.38235 20.0723 2.58434 20.3839C2.78634 20.6955 3.06306 20.9517 3.38934 21.129C3.71561 21.3063 4.08105 21.3992 4.4524 21.3992H20.7778" stroke="white" stroke-linecap="round" stroke-linejoin="round"/>
<path d="M11.3062 28.8199C11.0586 29.0966 10.7458 29.3071 10.3961 29.4321C10.0464 29.5571 9.67099 29.5926 9.30408 29.5354C8.93716 29.4782 8.59037 29.3302 8.2953 29.1047C8.00022 28.8793 7.76623 28.5836 7.61463 28.2446C7.46302 27.9056 7.39863 27.5341 7.4273 27.1638C7.45598 26.7936 7.57681 26.4364 7.7788 26.1248C7.98079 25.8132 8.25752 25.5571 8.58379 25.3798C8.91006 25.2024 9.27551 25.1095 9.64685 25.1095H20.0358" stroke="white" stroke-linecap="round" stroke-linejoin="round"/>
<path d="M61.6254 17.8096H52.127V11.873H58.4469C58.6842 11.873 58.9161 11.9441 59.1126 12.0772C59.3091 12.2102 59.4612 12.3991 59.5493 12.6194L61.6254 17.8096Z" stroke="white" stroke-width="3" stroke-linecap="round" stroke-linejoin="round"/>
<path d="M28.3809 21.3715H52.1269" stroke="white" stroke-width="3" stroke-linecap="round" stroke-linejoin="round"/>
<path d="M52.7206 32.0572C54.6878 32.0572 56.2825 30.4625 56.2825 28.4953C56.2825 26.5281 54.6878 24.9334 52.7206 24.9334C50.7534 24.9334 49.1587 26.5281 49.1587 28.4953C49.1587 30.4625 50.7534 32.0572 52.7206 32.0572Z" stroke="white" stroke-width="3" stroke-linecap="round" stroke-linejoin="round"/>
<path d="M37.2857 32.0572C39.2529 32.0572 40.8476 30.4625 40.8476 28.4953C40.8476 26.5281 39.2529 24.9334 37.2857 24.9334C35.3185 24.9334 33.7238 26.5281 33.7238 28.4953C33.7238 30.4625 35.3185 32.0572 37.2857 32.0572Z" stroke="white" stroke-width="3" stroke-linecap="round" stroke-linejoin="round"/>
<path d="M49.1587 28.4953H40.8475" stroke="white" stroke-width="3" stroke-linecap="round" stroke-linejoin="round"/>
<path d="M33.7237 28.4953H29.5682C29.2533 28.4953 28.9513 28.3702 28.7286 28.1475C28.5059 27.9249 28.3809 27.6229 28.3809 27.308V10.6857C28.3809 10.3708 28.5059 10.0688 28.7286 9.84618C28.9513 9.62352 29.2533 9.49843 29.5682 9.49843H52.1269V24.9826" stroke="white" stroke-width="3" stroke-linecap="round" stroke-linejoin="round"/>
<path d="M52.127 24.9827V17.8096H61.6254V27.308C61.6254 27.6229 61.5003 27.9249 61.2776 28.1476C61.055 28.3702 60.753 28.4953 60.4381 28.4953H56.2825" stroke="white" stroke-width="3" stroke-linecap="round" stroke-linejoin="round"/>
</svg>
