<svg width="52" height="52" viewBox="0 0 52 52" fill="none" xmlns="http://www.w3.org/2000/svg">
<g clip-path="url(#clip0)">
<path d="M0.653549 0H51.8425V51.189H0.653549V0Z" fill="#F2B200"/>
<path d="M26.248 34.1527C30.9746 34.1527 34.8062 30.3211 34.8062 25.5945C34.8062 20.868 30.9746 17.0364 26.248 17.0364C21.5215 17.0364 17.6899 20.868 17.6899 25.5945C17.6899 30.3211 21.5215 34.1527 26.248 34.1527Z" fill="#FFDF99"/>
<path d="M3.45295 3.35928C5.29255 6.9585 7.93198 10.0778 10.8114 12.7972C13.4508 15.3567 16.5701 17.9161 20.0094 19.3558C18.4897 15.6766 15.6903 12.3174 12.8909 9.51795C10.0115 6.71856 6.73224 3.83918 2.97305 2.3195C3.13302 2.63943 3.29298 3.03935 3.45295 3.35928Z" fill="#FFDF99"/>
<path d="M34.4063 15.9166C33.6864 17.0363 33.0466 18.1561 32.4867 19.3558C36.1659 17.8362 39.5252 14.9568 42.3246 12.2374C45.124 9.43796 47.9234 6.15867 49.443 2.39948C46.5637 3.59922 43.9242 5.67877 41.5247 7.67834C38.8853 10.0778 36.4059 12.7972 34.4063 15.9166Z" fill="#FFDF99"/>
<path d="M24.5684 0.319937C24.2485 3.2793 24.2485 6.23866 24.5684 9.11804C24.8084 11.6775 25.2083 14.3169 26.248 16.7164C27.8477 12.9572 28.1676 8.47818 28.1676 4.39906C28.1676 3.2793 28.0877 2.23952 28.0077 1.11976C28.0077 1.03978 27.9277 5.50412e-06 27.8477 5.50412e-06H25.6082C25.1283 5.50412e-06 24.6484 -0.15996 24.5684 0.319937Z" fill="#FFDF99"/>
<path d="M15.6103 2.55945C16.4102 5.35885 17.4499 8.15824 18.8096 10.7977C19.9294 13.1172 21.2891 15.4367 23.1287 17.2763C23.2887 13.1972 21.929 8.87809 20.4893 5.1189C20.0894 3.99914 19.6095 2.95936 19.0496 1.8396C18.7297 1.35971 18.4097 0 17.7699 0H14.9705C15.2104 0.879811 15.3704 1.75962 15.6103 2.55945Z" fill="#FFDF99"/>
<path d="M35.0462 1.75962C33.6065 4.31907 32.4067 7.03849 31.4469 9.83788C30.6471 12.2374 29.9273 14.8768 29.9273 17.4362C32.1668 15.3567 33.8464 12.5573 35.2061 9.91787C36.8858 6.79854 38.1655 3.43926 38.9653 0H36.0859C35.846 0 35.1261 1.51967 35.0462 1.75962Z" fill="#FFDF99"/>
<path d="M51.5226 23.9148C48.5632 23.5949 45.6039 23.5949 42.7245 23.9148C40.1651 24.1548 37.4456 24.5547 35.1261 25.5945C38.8853 27.1941 43.3644 27.5141 47.4435 27.5141C48.5632 27.5141 49.603 27.4341 50.7228 27.3541C50.8827 27.3541 51.8425 27.2741 51.8425 27.1941V24.9546C51.8425 24.4747 52.0025 23.9948 51.5226 23.9148Z" fill="#FFDF99"/>
<path d="M49.2831 14.9568C46.4837 15.7566 43.6843 16.7964 41.0449 18.1561C38.7254 19.2758 36.4059 20.6356 34.5663 22.4752C38.6454 22.6351 42.9644 21.2754 46.7236 19.8357C47.8434 19.4358 48.8832 18.9559 50.0029 18.396C50.4828 18.1561 51.8425 17.7562 51.8425 17.1963V14.3969C50.9627 14.5569 50.0829 14.7168 49.2831 14.9568Z" fill="#FFDF99"/>
<path d="M0.973486 27.2741C3.93285 27.594 6.89221 27.594 9.77159 27.2741C12.331 27.0342 14.9705 26.6342 17.37 25.5945C13.6108 23.9948 9.13173 23.6749 5.05261 23.6749C3.93285 23.6749 2.89307 23.7549 1.77331 23.8348C1.69333 23.8348 0.653555 23.9148 0.653555 23.9948V26.3143C0.653555 26.7142 0.493589 27.1941 0.973486 27.2741Z" fill="#FFDF99"/>
<path d="M2.41317 16.7964C4.97262 18.2361 7.69203 19.4358 10.4914 20.3956C12.8909 21.1954 15.5303 21.9153 18.0898 21.9153C16.0102 19.6757 13.2108 17.9961 10.5714 16.6364C7.45209 15.0367 4.09281 13.677 0.653549 12.8772V15.7566C0.653549 15.9965 2.17322 16.7164 2.41317 16.7964Z" fill="#FFDF99"/>
<path d="M0.653549 23.8349V32.8729L14.0107 29.3537L0.653549 23.8349Z" fill="#3E4347"/>
<path d="M51.8425 25.4345L38.4854 17.8362L26.248 27.994L14.0107 21.8353L0.653549 30.7934V34.1527H51.8425V25.4345Z" fill="#D0D0D0"/>
<path d="M38.4854 17.8362L42.9644 23.115L34.8062 25.9944L45.124 29.3537L34.8062 32.393L14.0107 21.8353L10.6514 27.994L17.6899 29.3537L14.0107 34.1527H51.8425V25.4345L38.4854 17.8362Z" fill="#3E4347"/>
<path d="M51.8425 31.8331C50.4028 32.0731 48.9631 32.553 47.7634 33.1928C47.0436 32.233 45.8438 31.5932 44.5641 31.5932C43.4443 31.5932 42.4046 32.0731 41.6847 32.7929C41.3648 32.553 41.0448 32.393 40.6449 32.393C40.0051 32.393 39.4452 32.7929 39.2052 33.2728C38.6454 33.0329 38.0055 32.8729 37.3656 32.8729C36.4058 32.8729 35.606 33.1928 34.8862 33.6727C33.7664 32.393 32.1668 31.5932 30.4071 31.5932C28.6475 31.5932 27.0479 32.393 26.0081 33.5927C25.5282 32.8729 24.8083 32.393 23.8485 32.393C22.7288 32.393 21.769 33.1128 21.4491 34.1526C20.6492 33.3528 19.6095 32.7929 18.4097 32.7929C17.5299 32.7929 16.7301 33.0329 16.0902 33.5128C16.0102 31.1933 14.1706 29.3537 11.7711 29.3537C9.61161 29.3537 7.85199 30.8733 7.53206 32.9529C6.49229 32.0731 5.21256 31.5932 3.77287 31.5932C2.65311 31.5932 1.69332 31.9131 0.813507 32.393V51.189H52.0025L51.8425 31.8331Z" fill="#83BF4F"/>
<path d="M51.4426 37.7519C49.523 36.7921 47.1235 36.7921 45.2839 37.9918C44.804 36.0722 43.0444 34.4726 40.9649 34.4726C38.9653 34.4726 36.0859 35.9123 36.0859 38.2318C34.5662 37.5919 32.6467 37.6719 31.3669 38.7117C30.5671 37.4319 28.8875 37.032 27.5278 37.5119C26.9679 37.7519 26.8079 38.3117 26.1681 37.8318C25.5282 37.3519 24.8084 36.952 24.0085 36.7921C22.4889 36.3922 20.8892 36.4721 19.5295 37.112C19.2096 37.272 18.8896 37.4319 18.5697 37.6719C18.2498 37.9118 17.9298 38.3117 17.6099 38.4717C17.4499 38.5517 17.05 38.3117 16.8901 38.2318C16.4901 38.0718 16.0102 37.9918 15.5304 37.9118C14.8105 37.8318 14.2506 38.0718 13.6108 38.2318C13.3708 38.3117 13.2109 37.9918 13.0509 37.9118C12.8109 37.7519 12.411 37.5919 12.0911 37.5919C11.6112 37.5919 11.2113 37.9118 10.7314 37.8318C10.5714 37.8318 10.1715 37.5119 10.0115 37.4319L8.8118 36.952C7.37211 36.6321 5.77245 37.112 4.73268 38.2318C4.33276 38.6317 3.53294 38.0718 3.05304 37.9118C2.17323 37.6719 1.3734 37.4319 0.493591 37.3519C1.8533 37.7519 3.21301 38.1518 4.41275 38.8716C4.81266 39.1116 5.05261 38.4717 5.37254 38.2318C6.0124 37.7519 6.73225 37.5119 7.53208 37.4319C8.25192 37.4319 8.89178 37.5919 9.53164 37.9118C9.93156 38.1518 10.1715 38.6317 10.5714 38.8716C10.7314 38.9516 10.9713 38.7117 11.0513 38.6317C11.2913 38.3917 11.6112 38.3917 11.9311 38.4717C12.2511 38.5517 12.491 38.7117 12.651 38.9516C12.8109 39.1116 12.8109 39.4315 13.1309 39.4315C13.8507 39.2715 14.4106 38.9516 15.2104 39.0316C16.0103 39.1116 16.7301 39.4315 17.37 39.8314C17.6899 40.0714 17.8499 39.7514 18.1698 39.5115C18.4897 39.1915 18.8096 38.9516 19.2096 38.6317C21.689 36.7121 24.7284 38.2318 26.568 40.1513C27.2078 39.3515 27.9277 38.3917 29.1274 38.7117C30.1672 38.9516 30.4871 40.0714 30.8071 40.9512C31.6069 40.1513 32.4867 39.3515 33.6065 39.1915C34.8862 39.0316 35.926 39.5915 36.9657 40.2313C37.1257 37.9918 37.8455 35.9922 40.245 35.5923C42.6445 35.1924 44.2442 37.112 44.804 39.1915C46.8036 37.5119 49.2831 37.032 51.6826 38.1518C51.6826 37.9118 51.6026 37.8318 51.4426 37.7519Z" fill="#699635"/>
<path d="M51.8425 46.7099C50.0029 45.2702 47.3635 44.9503 45.204 45.9101C44.6441 46.15 44.0842 46.5499 43.6043 46.9498C43.0444 47.4297 42.8045 47.0298 42.0846 46.8699C41.5248 46.7099 40.8849 46.7099 40.325 46.7899C40.245 46.7899 39.1253 47.1098 39.1253 47.1098C38.8053 46.6299 38.1655 46.39 37.6056 46.39C37.3657 46.39 37.1257 46.4699 36.8858 46.5499C36.4059 46.7099 36.4858 46.7099 36.0059 46.39C34.9662 45.7501 33.7664 45.5901 32.6467 45.8301C32.1668 45.99 31.6069 46.23 31.207 46.4699C30.8871 46.7099 30.4871 47.3498 30.0872 47.1898C28.8075 46.7099 27.6078 46.39 26.328 46.15C27.6078 46.4699 28.9675 46.8699 30.1672 47.5897C30.5671 47.9096 30.7271 47.5897 30.967 47.2698C31.4469 46.7099 32.2468 46.4699 32.8866 46.31C33.6065 46.23 34.2463 46.23 34.8862 46.5499C35.4461 46.7899 35.766 47.1898 36.1659 47.5097C36.5658 47.8297 36.8058 47.5097 37.2057 47.2698C37.8456 46.9498 38.4054 47.5097 38.6454 47.9896C38.8853 48.3895 39.6052 47.9096 40.0051 47.8297C40.8049 47.6697 41.6847 47.7497 42.4046 48.1496C42.5645 48.2296 43.2844 48.8694 43.5243 48.7894C43.9242 48.4695 44.2442 47.9896 44.6441 47.6697C46.8836 45.99 50.0029 46.4699 51.9225 48.4695C51.8425 47.8297 51.8425 47.1098 51.8425 46.7099ZM40.8049 47.6697C40.8049 47.6697 40.8849 47.6697 40.8049 47.6697V47.6697Z" fill="#699635"/>
<path d="M28.7275 44.0705C26.8079 43.0307 24.4084 43.1107 22.5688 44.3105C22.0889 42.3909 20.3293 40.7912 18.2498 40.7912C16.97 40.7912 15.6903 41.1911 14.8105 42.071C14.4106 42.4709 14.0107 42.9508 13.7707 43.4307C13.6108 43.7506 13.6108 44.3105 13.3708 44.5504C12.2511 44.0705 10.8114 43.9905 9.6916 44.4704C9.37167 44.6304 8.73181 45.1903 8.49186 44.8703C8.17193 44.3905 7.61205 44.0705 7.13215 43.8306C6.57227 43.5906 5.93241 43.5906 5.37253 43.6706C5.13258 43.8306 4.89264 43.9106 4.65269 43.9905C4.49272 44.0705 4.01283 44.5504 3.85286 44.4704C3.69289 44.4704 3.45295 44.1505 3.29298 44.0705C2.97305 43.8306 2.7331 43.6706 2.41317 43.5106C1.85329 43.2707 1.29341 43.0307 0.653549 42.9508V44.0705C0.653549 44.2305 1.69333 44.5504 1.93327 44.6304C2.7331 45.0303 3.37296 45.7502 4.01283 46.39C4.65269 45.5902 5.37253 44.6304 6.57227 44.9503C7.61205 45.1903 7.93198 46.31 8.25191 47.1898C9.05174 46.39 9.93155 45.5902 11.0513 45.4302C12.331 45.2703 13.3708 45.8301 14.4106 46.47C14.5706 44.2305 15.2904 42.2309 17.6899 41.831C20.0894 41.4311 21.689 43.3507 22.2489 45.4302C24.2485 43.7506 26.7279 43.2707 29.1274 44.3905C29.0474 44.2305 28.8875 44.1505 28.7275 44.0705Z" fill="#699635"/>
</g>
<defs>
<clipPath id="clip0">
<rect x="0.653549" width="51.189" height="51.189" rx="5" fill="white"/>
</clipPath>
</defs>
</svg>
