<svg width="52" height="52" viewBox="0 0 52 52" fill="none" xmlns="http://www.w3.org/2000/svg">
<g clip-path="url(#clip0)">
<path d="M51.3458 45.6298C51.3463 46.3529 51.2043 47.069 50.9279 47.7372C50.6515 48.4054 50.2461 49.0126 49.7349 49.524C49.2237 50.0355 48.6167 50.4411 47.9487 50.7178C47.2806 50.9945 46.5645 51.1368 45.8414 51.1366H5.78602C4.3263 51.1358 2.92669 50.5551 1.89503 49.5224C0.863378 48.4897 0.28417 47.0895 0.284807 45.6298V5.57443C0.285019 4.11526 0.864601 2.71588 1.89616 1.68387C2.92773 0.651857 4.32685 0.0716644 5.78602 0.0708163H45.8414C46.5642 0.0706061 47.28 0.212812 47.9479 0.48931C48.6158 0.765809 49.2226 1.17118 49.7338 1.68227C50.245 2.19336 50.6504 2.80015 50.927 3.46798C51.2036 4.13581 51.3459 4.85159 51.3458 5.57443V45.6298Z" fill="#F28327"/>
<path d="M5.1628 51.1829C5.21214 51.1869 5.26227 51.1917 5.31638 51.1988C5.31479 51.1821 5.30524 51.1606 5.29888 51.1423L5.1628 51.1829Z" fill="#F9ED32"/>
<path d="M43.6841 51.245H44.1888L43.7281 51.1186C43.7141 51.161 43.6995 51.2031 43.6841 51.245Z" fill="#F9ED32"/>
<path d="M24.513 28.2099C14.8431 28.2099 7.0064 36.049 7.0064 45.7181C7.0064 47.6505 7.33113 49.5037 7.911 51.2409H41.1119C41.71 49.461 42.0158 47.5958 42.0173 45.7181C42.0173 36.0482 34.1805 28.2099 24.513 28.2099Z" fill="#F49A2E"/>
<path d="M5.28518 40.3352L0.288654 38.9451V42.3908L4.74209 42.9907C4.86527 42.0949 5.04923 41.2055 5.28518 40.3352Z" fill="#F49A2E"/>
<path d="M51.3465 45.6301H44.4623V45.7181C44.4623 46.6435 44.3999 47.5673 44.2792 48.4647L50.0507 49.2502C50.8458 48.2936 51.3465 47.0794 51.3465 45.7349V45.6301Z" fill="#F49A2E"/>
<path d="M10.8776 31.1525L0.288654 19.8429V26.0688L9.01158 33.1592C9.58425 32.4506 10.2113 31.7779 10.8776 31.1557" fill="#F49A2E"/>
<path d="M7.43598 35.3844L0.29112 31.0389V35.238L6.18985 37.7943C6.54996 36.9643 6.96631 36.16 7.43598 35.3868" fill="#F49A2E"/>
<path d="M4.5598 45.7501L0.29112 45.7525C0.29112 46.9499 0.688634 48.0528 1.34289 48.9598L4.74616 48.4919C4.62358 47.5839 4.56133 46.6688 4.5598 45.7525" fill="#F49A2E"/>
<path d="M42.8123 37.7438L51.3489 34.0142V29.3544L41.5622 35.3419C42.0341 36.1122 42.4532 36.92 42.8123 37.7414" fill="#F49A2E"/>
<path d="M35.9714 29.384L51.3465 7.58073V5.68434C51.3465 3.34724 49.8844 1.36207 47.8256 0.563843L33.6511 27.9739C34.4509 28.3866 35.2315 28.8633 35.9714 29.384Z" fill="#F49A2E"/>
<path d="M39.9777 33.1128L51.3465 23.8236V16.8955L38.1053 31.1148C38.7724 31.7387 39.3994 32.4074 39.9777 33.1128Z" fill="#F49A2E"/>
<path d="M44.276 42.9251L51.3481 41.9493V38.1365L43.7241 40.2857C43.9659 41.1524 44.1502 42.0341 44.276 42.9251Z" fill="#F49A2E"/>
<path d="M31.1676 26.899L40.6184 0.181534H33.899L28.569 26.1759C29.448 26.3559 30.3206 26.6006 31.1676 26.899Z" fill="#F49A2E"/>
<path d="M20.3955 26.1871L14.9807 0.181534H8.25894L17.8025 26.9182C18.6488 26.6145 19.5152 26.3703 20.3955 26.1871Z" fill="#F49A2E"/>
<path d="M24.5106 25.7704C24.9785 25.7536 25.42 25.7872 25.8696 25.8152L27.5564 0.180725H21.3297L23.0917 25.8152C23.564 25.7817 24.0372 25.7652 24.5106 25.7656" fill="#F49A2E"/>
<path d="M15.3262 28.0019L1.76434 1.96355C0.857332 2.94494 0.288654 4.24706 0.288654 5.68834V11.4879L13.0011 29.4232C13.7432 28.8975 14.52 28.4227 15.3262 28.0019Z" fill="#F49A2E"/>
<path d="M4.53974 39.913V51.0698C4.53974 51.1634 4.56933 51.2418 4.61012 51.2418H8.92679C8.96279 51.2418 8.99318 51.1634 8.99318 51.0698V44.2505V39.913C8.99463 39.8733 8.98838 39.8336 8.97478 39.7962L8.96999 39.7938V39.7866C8.96359 39.7618 8.94039 39.741 8.92679 39.741H4.61012C4.56933 39.7418 4.53974 39.8218 4.53974 39.913Z" fill="#25333A"/>
<path d="M4.82608 44.7615H8.63646C8.66125 44.7615 8.69084 44.7503 8.69084 44.7423V44.0209V43.6002C8.69084 43.5906 8.66125 43.5834 8.63646 43.5834H4.82608C4.82608 43.5834 4.79408 43.5874 4.78528 43.5874V43.5922C4.77569 43.5946 4.76689 43.5994 4.76689 43.6026V44.7455C4.76689 44.7503 4.79408 44.7615 4.82608 44.7615Z" fill="#6CB5C6"/>
<path d="M4.86046 43.1867H8.66604C8.69804 43.1867 8.72683 43.1747 8.72683 43.1667V42.4412V42.0245C8.72683 42.0157 8.69724 42.0077 8.66604 42.0077H4.86046C4.86046 42.0077 4.82607 42.0077 4.82127 42.0125V42.0157C4.81007 42.0173 4.80368 42.0221 4.80368 42.0245V43.1667C4.80368 43.1747 4.82607 43.1867 4.86046 43.1867Z" fill="#6CB5C6"/>
<path d="M4.86081 41.5414H8.66639C8.69839 41.5414 8.72718 41.5318 8.72718 41.5246V40.7976V40.3809C8.72718 40.3713 8.69759 40.3641 8.66639 40.3641H4.86081C4.86081 40.3641 4.82642 40.3641 4.82162 40.3705C4.81043 40.3769 4.80403 40.3769 4.80403 40.3817V41.5278C4.80403 41.5318 4.82642 41.5414 4.86081 41.5414Z" fill="#6CB5C6"/>
<path d="M4.86046 46.438H8.66604C8.69804 46.438 8.72683 46.4276 8.72683 46.4204V45.6934V45.279C8.72683 45.2662 8.69724 45.2614 8.66604 45.2614H4.86046C4.86046 45.2614 4.82607 45.263 4.82127 45.2686C4.81007 45.2702 4.80368 45.2734 4.80368 45.2814V46.4228C4.80368 46.4308 4.82607 46.438 4.86046 46.438Z" fill="#6CB5C6"/>
<path d="M4.86046 48.3735H8.66604C8.69804 48.3735 8.72683 48.3639 8.72683 48.3567V47.6297V47.213C8.72683 47.201 8.69724 47.1938 8.66604 47.1938H4.86046C4.86046 47.1938 4.82607 47.201 4.82127 47.201V47.2034C4.81007 47.209 4.80368 47.2106 4.80368 47.2154V48.3599C4.80368 48.3639 4.82607 48.3735 4.86046 48.3735Z" fill="#6CB5C6"/>
<path d="M9.60664 45.7181V51.157C9.60664 51.2033 9.62904 51.2393 9.65703 51.2393H13.1755C13.2051 51.2393 13.2299 51.2033 13.2299 51.157V47.8321V45.7165C13.2299 45.6917 13.2275 45.6725 13.2139 45.6597C13.2027 45.6429 13.1915 45.6373 13.1755 45.6373H9.65623C9.62984 45.6373 9.60664 45.6725 9.60664 45.7181Z" fill="#25333A"/>
<path d="M9.8354 50.1172H12.9339C12.9587 50.1172 12.9859 50.1076 12.9859 50.1012V49.451V49.0766C12.9859 49.067 12.9587 49.0598 12.9339 49.0598H9.8354C9.8354 49.0598 9.81061 49.0638 9.80341 49.067C9.79861 49.0702 9.78741 49.075 9.78741 49.0766V50.102C9.78741 50.1076 9.81061 50.1172 9.8354 50.1172Z" fill="#6CB5C6"/>
<path d="M9.8706 48.7095H12.9667C12.9947 48.7095 13.0171 48.6999 13.0171 48.6927V48.0432V47.6681C13.0171 47.6625 12.9947 47.6537 12.9667 47.6537H9.8714C9.85981 47.6536 9.84826 47.6549 9.83701 47.6577V47.6625C9.83701 47.6625 9.82581 47.6649 9.82581 47.6681V48.6903C9.82501 48.7023 9.84261 48.7095 9.8706 48.7095Z" fill="#6CB5C6"/>
<path d="M9.87097 47.2378H12.9671C12.9951 47.2378 13.0175 47.233 13.0175 47.2234V46.5748V46.1996C13.0175 46.1916 12.9951 46.1868 12.9671 46.1868H9.87177C9.85497 46.1868 9.84377 46.1868 9.83737 46.1892C9.83264 46.1914 9.82872 46.1951 9.82618 46.1996V47.221C9.82538 47.233 9.84297 47.2378 9.87097 47.2378Z" fill="#6CB5C6"/>
<path opacity="0.6" d="M4.53974 40.7832V51.0874C4.53974 51.173 4.56933 51.2434 4.59653 51.2434H8.32932C8.35892 51.2434 8.38851 51.173 8.38851 51.0874V44.7927V40.7856C8.38989 40.7501 8.38529 40.7147 8.37491 40.6808L8.37251 40.6792V40.676C8.35892 40.6464 8.34692 40.6296 8.32932 40.6296H4.59653C4.56933 40.632 4.53974 40.7024 4.53974 40.7856" fill="#25333A"/>
<path opacity="0.6" d="M10.005 46.7819V51.1762C10.005 51.2146 10.0298 51.2434 10.0506 51.2434H12.71C12.73 51.2434 12.746 51.2146 12.746 51.1762V48.4911V46.7819C12.746 46.7643 12.746 46.7443 12.7364 46.7363V46.7323C12.73 46.7203 12.7228 46.7155 12.7228 46.7155H10.0498C10.0298 46.7179 10.005 46.7443 10.005 46.7819Z" fill="#25333A"/>
<path d="M19.4413 39.913V51.0698C19.4413 51.1634 19.4709 51.2418 19.5077 51.2418H23.8244C23.8628 51.2418 23.8884 51.1634 23.8884 51.0698V44.2505V39.913C23.8912 39.8735 23.8863 39.8339 23.874 39.7962L23.8676 39.7938V39.7866C23.8628 39.7618 23.8452 39.741 23.8244 39.741H19.5077C19.4709 39.7418 19.4413 39.8218 19.4413 39.913Z" fill="#25333A"/>
<path d="M19.7269 44.7615H23.5332C23.5604 44.7615 23.594 44.7503 23.594 44.7423V44.0209V43.6002C23.594 43.5906 23.5604 43.5834 23.5332 43.5834H19.7269C19.7269 43.5834 19.6949 43.5874 19.6837 43.5874V43.5922C19.6813 43.5946 19.6661 43.5994 19.6661 43.6026V44.7455C19.6661 44.7503 19.6957 44.7615 19.7269 44.7615Z" fill="#6CB5C6"/>
<path d="M19.7613 43.1867H23.5668C23.5988 43.1867 23.626 43.1747 23.626 43.1667V42.4412V42.0245C23.626 42.0157 23.5988 42.0077 23.5668 42.0077H19.7613C19.7613 42.0077 19.7293 42.0077 19.7229 42.0125V42.0157C19.7141 42.0173 19.7069 42.0221 19.7069 42.0245V43.1667C19.7069 43.1747 19.7293 43.1867 19.7613 43.1867Z" fill="#6CB5C6"/>
<path d="M19.7612 41.5414H23.5668C23.5988 41.5414 23.626 41.5318 23.626 41.5246V40.7976V40.3809C23.626 40.3713 23.5988 40.3641 23.5668 40.3641H19.7612C19.7612 40.3641 19.7292 40.3641 19.7228 40.3705C19.714 40.3769 19.7068 40.3769 19.7068 40.3817V41.5278C19.7068 41.5318 19.7292 41.5414 19.7612 41.5414Z" fill="#6CB5C6"/>
<path d="M19.7613 46.438H23.5668C23.5988 46.438 23.626 46.4276 23.626 46.4204V45.6934V45.279C23.626 45.2662 23.5988 45.2614 23.5668 45.2614H19.7613C19.7613 45.2614 19.7293 45.263 19.7229 45.2686C19.7141 45.2702 19.7069 45.2734 19.7069 45.2814V46.4228C19.7069 46.4308 19.7293 46.438 19.7613 46.438Z" fill="#6CB5C6"/>
<path d="M19.7613 48.3735H23.5668C23.5988 48.3735 23.626 48.3639 23.626 48.3567V47.6297V47.213C23.626 47.201 23.5988 47.1938 23.5668 47.1938H19.7613C19.7613 47.1938 19.7293 47.201 19.7229 47.201V47.2034C19.7141 47.209 19.7069 47.2106 19.7069 47.2154V48.3599C19.7069 48.3639 19.7293 48.3735 19.7613 48.3735Z" fill="#6CB5C6"/>
<path d="M24.5106 45.7181V51.157C24.5106 51.2033 24.533 51.2393 24.5586 51.2393H28.0755C28.1099 51.2393 28.1315 51.2033 28.1315 51.157V47.8321V45.7165C28.1315 45.6917 28.1299 45.6725 28.1155 45.6597H28.1131C28.1059 45.6429 28.0907 45.6373 28.0747 45.6373H24.557C24.533 45.6373 24.5106 45.6725 24.5106 45.7181Z" fill="#25333A"/>
<path d="M24.7394 50.1172H27.8411C27.8659 50.1172 27.8875 50.1076 27.8875 50.1012V49.451V49.0766C27.8875 49.067 27.8683 49.0598 27.8411 49.0598H24.7394C24.7394 49.0598 24.7146 49.0638 24.7074 49.067C24.7026 49.0702 24.6874 49.075 24.6874 49.0766V50.102C24.6874 50.1076 24.7146 50.1172 24.7394 50.1172Z" fill="#6CB5C6"/>
<path d="M24.769 48.7095H27.8675C27.8899 48.7095 27.9179 48.6999 27.9179 48.6927V48.0432V47.6681C27.9179 47.6625 27.8907 47.6537 27.8675 47.6537H24.769C24.769 47.6537 24.7418 47.6561 24.737 47.6577V47.6625C24.737 47.6625 24.7234 47.6649 24.7234 47.6681V48.6903C24.7234 48.7023 24.7418 48.7095 24.769 48.7095Z" fill="#6CB5C6"/>
<path d="M24.7693 47.2378H27.8679C27.8903 47.2378 27.9183 47.233 27.9183 47.2234V46.5748V46.1996C27.9183 46.1916 27.8911 46.1868 27.8679 46.1868H24.7693C24.7693 46.1868 24.7421 46.1868 24.7373 46.1892L24.7237 46.1996V47.221C24.7237 47.233 24.7421 47.2378 24.7693 47.2378Z" fill="#6CB5C6"/>
<path opacity="0.6" d="M19.4413 40.7832V51.0874C19.4413 51.173 19.4637 51.2434 19.4957 51.2434H23.2309C23.2605 51.2434 23.2901 51.173 23.2901 51.0874V44.7927V40.7856C23.2907 40.7498 23.2845 40.7142 23.2717 40.6808V40.6792L23.2701 40.676C23.2605 40.6464 23.2469 40.6296 23.2309 40.6296H19.4965C19.4645 40.632 19.4413 40.7024 19.4413 40.7856" fill="#25333A"/>
<path opacity="0.6" d="M24.9057 46.7819V51.1762C24.9057 51.2146 24.9305 51.2434 24.9489 51.2434H27.6076C27.6308 51.2434 27.6492 51.2146 27.6492 51.1762V48.4911V46.7819C27.6492 46.7643 27.6492 46.7443 27.6404 46.7363L27.6356 46.7323L27.6188 46.7155H24.9473C24.9305 46.7179 24.9057 46.7443 24.9057 46.7819Z" fill="#25333A"/>
<path d="M46.5955 39.913V51.0698C46.5955 51.1634 46.5659 51.2418 46.5283 51.2418H42.2092C42.174 51.2418 42.1428 51.1634 42.1428 51.0698V44.2505V39.913C42.1428 39.8626 42.1516 39.8218 42.1596 39.7962L42.1612 39.7938V39.7866C42.174 39.7618 42.186 39.741 42.2092 39.741H46.5275C46.5659 39.7418 46.5955 39.8218 46.5955 39.913Z" fill="#25333A"/>
<path d="M46.3155 44.7615H42.5124C42.4828 44.7615 42.4508 44.7503 42.4508 44.7423V44.0209V43.6002C42.4508 43.5906 42.4828 43.5834 42.5124 43.5834H46.3155L46.3515 43.5874V43.5922C46.3619 43.5946 46.3691 43.5994 46.3691 43.6026V44.7455C46.3691 44.7503 46.3475 44.7615 46.3155 44.7615Z" fill="#6CB5C6"/>
<path d="M46.2795 43.1866H42.4764C42.4436 43.1866 42.414 43.1746 42.414 43.1666V42.4412V42.0245C42.414 42.0157 42.4436 42.0077 42.4764 42.0077H46.2795C46.2941 42.0064 46.3088 42.0081 46.3227 42.0125V42.0157C46.3259 42.0173 46.3323 42.0221 46.3323 42.0245V43.1666C46.3307 43.1746 46.3131 43.1866 46.2795 43.1866Z" fill="#6CB5C6"/>
<path d="M46.2795 41.5414H42.4764C42.4436 41.5414 42.414 41.5318 42.414 41.5246V40.7976V40.3809C42.414 40.3713 42.4436 40.3641 42.4764 40.3641H46.2795C46.2963 40.3641 46.3131 40.3641 46.3227 40.3705C46.3259 40.3769 46.3323 40.3769 46.3323 40.3817V41.5278C46.3307 41.5318 46.3131 41.5414 46.2795 41.5414Z" fill="#6CB5C6"/>
<path d="M46.2795 46.438H42.4764C42.4436 46.438 42.414 46.4276 42.414 46.4204V45.6934V45.279C42.414 45.2662 42.4436 45.2614 42.4764 45.2614H46.2795C46.2943 45.2605 46.3091 45.263 46.3227 45.2686C46.3259 45.2702 46.3323 45.2734 46.3323 45.2814V46.4228C46.3307 46.4308 46.3131 46.438 46.2795 46.438Z" fill="#6CB5C6"/>
<path d="M46.2795 48.3735H42.4764C42.4436 48.3735 42.414 48.3639 42.414 48.3567V47.6297V47.213C42.414 47.201 42.4436 47.1938 42.4764 47.1938H46.2795C46.2963 47.1938 46.3131 47.201 46.3227 47.201V47.2034C46.3259 47.209 46.3323 47.2106 46.3323 47.2154V48.3599C46.3307 48.3639 46.3131 48.3735 46.2795 48.3735Z" fill="#6CB5C6"/>
<path d="M41.5286 45.7181V51.157C41.5286 51.2033 41.5102 51.2393 41.483 51.2393H37.9629C37.9334 51.2393 37.9086 51.2033 37.9086 51.157V47.8321V45.7165C37.9086 45.6917 37.9158 45.6725 37.9222 45.6597H37.9246C37.9302 45.6498 37.9389 45.6419 37.9493 45.6373H41.483C41.5078 45.6373 41.5286 45.6725 41.5286 45.7181Z" fill="#25333A"/>
<path d="M41.3006 50.1172H38.2045C38.1797 50.1172 38.1541 50.1076 38.1541 50.1012V49.451V49.0766C38.1541 49.067 38.1789 49.0598 38.2045 49.0598H41.3006C41.315 49.0598 41.327 49.0638 41.3366 49.067C41.3422 49.0702 41.347 49.075 41.347 49.0766V50.102C41.347 50.1076 41.3294 50.1172 41.3006 50.1172Z" fill="#6CB5C6"/>
<path d="M41.2766 48.7095H38.1717C38.1525 48.7095 38.1229 48.6999 38.1229 48.6927V48.0432V47.6681C38.1229 47.6625 38.1501 47.6537 38.1717 47.6537H41.2766C41.2766 47.6537 41.3006 47.6561 41.3038 47.6577V47.6625C41.3038 47.6625 41.3174 47.6649 41.3174 47.6681V48.6903C41.3174 48.7023 41.3006 48.7095 41.2766 48.7095Z" fill="#6CB5C6"/>
<path d="M41.2766 47.2378H38.1717C38.1525 47.2378 38.1229 47.233 38.1229 47.2234V46.5748V46.1996C38.1229 46.1916 38.1501 46.1868 38.1717 46.1868H41.2766C41.2766 46.1868 41.3006 46.1868 41.3038 46.1892C41.315 46.194 41.3174 46.1996 41.3174 46.1996V47.221C41.3174 47.233 41.3006 47.2378 41.2766 47.2378Z" fill="#6CB5C6"/>
<path opacity="0.6" d="M46.5955 40.7832V51.0874C46.5955 51.173 46.5691 51.2434 46.5395 51.2434H42.8067C42.7731 51.2434 42.7507 51.173 42.7507 51.0874V44.7927V40.7856C42.7507 40.74 42.7507 40.704 42.7627 40.6808L42.7643 40.6792L42.7675 40.676C42.7755 40.6464 42.7891 40.6296 42.8091 40.6296H46.5419C46.5691 40.632 46.5955 40.7024 46.5955 40.7856" fill="#25333A"/>
<path opacity="0.6" d="M41.1327 46.7819V51.1762C41.1327 51.2146 41.1127 51.2434 41.0855 51.2434H38.4284C38.4116 51.2434 38.3868 51.2146 38.3868 51.1762V48.4911V46.7819C38.3868 46.7643 38.3924 46.7443 38.402 46.7363L38.4036 46.7323C38.414 46.7203 38.4164 46.7155 38.4164 46.7155H41.0879C41.1127 46.7179 41.1327 46.7443 41.1327 46.7819Z" fill="#25333A"/>
<path d="M5.34757 39.9386V51.069C5.34757 51.1626 5.37877 51.2377 5.41396 51.2377H9.72183C9.75622 51.2377 9.78742 51.1626 9.78742 51.069V44.2657V39.9386C9.78923 39.8996 9.78297 39.8607 9.76902 39.8242V39.8194C9.76902 39.8194 9.76902 39.8146 9.76742 39.813C9.75702 39.7882 9.74023 39.7674 9.72263 39.7674H5.41476C5.37877 39.7698 5.34837 39.8474 5.34837 39.9386" fill="#25333A"/>
<path d="M5.6339 44.7736H9.42828C9.45787 44.7736 9.48587 44.764 9.48587 44.756V44.0313V43.6154C9.48587 43.605 9.45787 43.5986 9.42828 43.5986H5.6339C5.6195 43.5986 5.60031 43.6026 5.59151 43.6042V43.6074C5.58511 43.6106 5.57631 43.6138 5.57631 43.6178V44.7592C5.57631 44.764 5.6011 44.7736 5.6339 44.7736Z" fill="#6CB5C6"/>
<path d="M5.67069 43.2067H9.46267C9.49227 43.2067 9.52186 43.1971 9.52186 43.1891V42.4645V42.0478C9.52186 42.0382 9.49227 42.0318 9.46267 42.0318H5.67069C5.6539 42.0318 5.6371 42.0318 5.6275 42.035V42.0382C5.61951 42.0414 5.61231 42.0446 5.61231 42.0478V43.1891C5.61151 43.1971 5.6363 43.2067 5.67069 43.2067Z" fill="#6CB5C6"/>
<path d="M5.67104 41.5615H9.46302C9.49261 41.5615 9.52221 41.5519 9.52221 41.5447V40.8192V40.4025C9.52221 40.3913 9.49261 40.3857 9.46302 40.3857H5.67104C5.65424 40.3857 5.63745 40.3857 5.62785 40.3905C5.61985 40.3969 5.61265 40.3969 5.61265 40.4041V41.5463C5.61185 41.5519 5.63665 41.5615 5.67104 41.5615Z" fill="#6CB5C6"/>
<path d="M5.67069 46.454H9.46267C9.49227 46.454 9.52186 46.4444 9.52186 46.438V45.7117V45.295C9.52186 45.2838 9.49227 45.2782 9.46267 45.2782H5.67069C5.6539 45.2782 5.6371 45.283 5.6275 45.2854C5.61951 45.291 5.61231 45.2926 5.61231 45.2974V46.4404C5.61151 46.4444 5.6363 46.454 5.67069 46.454Z" fill="#6CB5C6"/>
<path d="M5.67069 48.3736H9.46267C9.49227 48.3736 9.52186 48.364 9.52186 48.356V47.6314V47.2155C9.52186 47.2035 9.49227 47.1971 9.46267 47.1971H5.67069C5.6539 47.1971 5.6371 47.2027 5.6275 47.2043V47.2059C5.61951 47.2091 5.61231 47.2123 5.61231 47.2179V48.3592C5.61151 48.364 5.6363 48.3736 5.67069 48.3736Z" fill="#6CB5C6"/>
<path d="M10.4017 45.7342V51.1602C10.4017 51.205 10.4249 51.2426 10.4545 51.2426H13.9601C13.9929 51.2426 14.0145 51.205 14.0145 51.1602V47.8441V45.7318C14.0145 45.7102 14.0105 45.6894 13.9993 45.6774V45.6758C13.9873 45.659 13.9737 45.6526 13.9593 45.6526H10.4521C10.4249 45.6526 10.4017 45.6886 10.4017 45.7342Z" fill="#25333A"/>
<path d="M10.6352 50.1172H13.7234C13.7466 50.1172 13.7722 50.106 13.7722 50.1004V49.451V49.0798C13.7722 49.0702 13.7474 49.0638 13.7234 49.0638H10.6352C10.6224 49.0638 10.6072 49.0654 10.6016 49.0702C10.596 49.0718 10.588 49.0766 10.588 49.0798V50.1004C10.588 50.1068 10.6072 50.1172 10.6352 50.1172Z" fill="#6CB5C6"/>
<path d="M10.6592 48.7143H13.7474C13.773 48.7143 13.797 48.7031 13.797 48.6959V48.0504V47.6769C13.797 47.6689 13.7738 47.6617 13.7474 47.6617H10.6592C10.648 47.6617 10.6336 47.6633 10.6264 47.6689C10.6184 47.6705 10.6136 47.6737 10.6136 47.6769V48.6959C10.6136 48.7039 10.6344 48.7143 10.6592 48.7143Z" fill="#6CB5C6"/>
<path d="M10.6592 47.2458H13.7473C13.7729 47.2458 13.7969 47.2394 13.7969 47.229V46.5812V46.2109C13.7969 46.2013 13.7737 46.1941 13.7473 46.1941H10.6592C10.648 46.1946 10.637 46.1968 10.6264 46.2005L10.6136 46.2085V47.2274C10.6136 47.2402 10.6344 47.2458 10.6592 47.2458Z" fill="#6CB5C6"/>
<path opacity="0.6" d="M5.34757 40.8072V51.0802C5.34757 51.1658 5.37397 51.2361 5.40356 51.2361H9.12916C9.15875 51.2361 9.18675 51.1658 9.18675 51.0802V44.8015V40.8072C9.18833 40.7709 9.18234 40.7347 9.16915 40.7008V40.6984V40.6952C9.15875 40.6696 9.14595 40.6512 9.12916 40.6512H5.40356C5.37397 40.6528 5.34757 40.7232 5.34757 40.8072Z" fill="#25333A"/>
<path opacity="0.6" d="M10.8008 46.7899V51.1738C10.8008 51.2114 10.82 51.2409 10.8432 51.2409H13.493C13.5162 51.2409 13.5346 51.2114 13.5346 51.1738V48.4927V46.7899C13.5346 46.7731 13.5322 46.7539 13.521 46.7443V46.7427C13.5166 46.7359 13.5112 46.7297 13.505 46.7243H10.8416C10.82 46.7243 10.8008 46.7539 10.8008 46.7899Z" fill="#25333A"/>
<path d="M47.2945 39.9386V51.069C47.2945 51.1626 47.2633 51.2377 47.229 51.2377H42.9195C42.8851 51.2377 42.8539 51.1626 42.8539 51.069V44.2657V39.9386C42.8531 39.8996 42.8596 39.8608 42.8731 39.8242V39.8194C42.8731 39.8194 42.8731 39.8146 42.8755 39.813C42.8851 39.7882 42.9011 39.7674 42.9195 39.7674H47.229C47.2633 39.7698 47.2945 39.8474 47.2945 39.9386Z" fill="#25333A"/>
<path d="M47.0114 44.7736H43.217C43.1874 44.7736 43.1562 44.764 43.1562 44.756V44.0313V43.6154C43.1562 43.605 43.1874 43.5986 43.217 43.5986H47.0114C47.0242 43.5986 47.0426 43.6026 47.0506 43.6042V43.6074C47.0594 43.6106 47.0674 43.6138 47.0674 43.6178V44.7592C47.0666 44.764 47.0426 44.7736 47.0114 44.7736Z" fill="#6CB5C6"/>
<path d="M46.9714 43.2067H43.1786C43.1458 43.2067 43.1178 43.1971 43.1178 43.1891V42.4645V42.0478C43.1178 42.0382 43.1458 42.0318 43.1786 42.0318H46.9714C46.9882 42.0318 47.0034 42.0318 47.0138 42.035V42.0382C47.0202 42.0414 47.029 42.0446 47.029 42.0478V43.1891C47.029 43.1971 47.0034 43.2067 46.9714 43.2067Z" fill="#6CB5C6"/>
<path d="M46.9714 41.5615H43.1786C43.1458 41.5615 43.1178 41.5519 43.1178 41.5447V40.8192V40.4025C43.1178 40.3913 43.1458 40.3857 43.1786 40.3857H46.9714C46.9882 40.3857 47.0034 40.3857 47.0138 40.3905C47.0202 40.3969 47.029 40.3969 47.029 40.4041V41.5463C47.029 41.5519 47.0034 41.5615 46.9714 41.5615Z" fill="#6CB5C6"/>
<path d="M46.9714 46.454H43.1786C43.1458 46.454 43.1178 46.4444 43.1178 46.438V45.7117V45.295C43.1178 45.2838 43.1458 45.2782 43.1786 45.2782H46.9714C46.9882 45.2782 47.0034 45.283 47.0138 45.2854C47.0202 45.291 47.029 45.2926 47.029 45.2974V46.4404C47.029 46.4444 47.0034 46.454 46.9714 46.454Z" fill="#6CB5C6"/>
<path d="M46.9714 48.3736H43.1786C43.1458 48.3736 43.1178 48.364 43.1178 48.356V47.6314V47.2155C43.1178 47.2035 43.1458 47.1971 43.1786 47.1971H46.9714C46.9882 47.1971 47.0034 47.2027 47.0138 47.2043V47.2059C47.0202 47.2091 47.029 47.2123 47.029 47.2179V48.3592C47.029 48.364 47.0034 48.3736 46.9714 48.3736Z" fill="#6CB5C6"/>
<path d="M42.2412 45.7342V51.1602C42.2412 51.205 42.2164 51.2426 42.1884 51.2426H38.6812C38.65 51.2426 38.6276 51.205 38.6276 51.1602V47.8441V45.7318C38.6276 45.7102 38.6324 45.6894 38.6436 45.6774V45.6758C38.6564 45.659 38.6668 45.6526 38.6828 45.6526H42.1916C42.2164 45.6526 42.2412 45.6886 42.2412 45.7342Z" fill="#25333A"/>
<path d="M42.0125 50.1172H38.9227C38.9003 50.1172 38.8731 50.106 38.8731 50.1004V49.451V49.0798C38.8731 49.0702 38.8979 49.0638 38.9227 49.0638H42.0125C42.0253 49.0638 42.0365 49.0654 42.0453 49.0702C42.0501 49.0718 42.0581 49.0766 42.0581 49.0798V50.1004C42.0581 50.1068 42.0365 50.1172 42.0125 50.1172Z" fill="#6CB5C6"/>
<path d="M41.9805 48.7143H38.8915C38.8668 48.7143 38.8436 48.7031 38.8436 48.6959V48.0504V47.6769C38.8436 47.6689 38.8644 47.6617 38.8915 47.6617H41.9805C41.9925 47.6617 42.0045 47.6633 42.0117 47.6689C42.0213 47.6705 42.0269 47.6737 42.0269 47.6769V48.6959C42.0269 48.7039 42.0045 48.7143 41.9805 48.7143Z" fill="#6CB5C6"/>
<path d="M41.9805 47.2458H38.8915C38.8668 47.2458 38.8436 47.2394 38.8436 47.229V46.5812V46.2109C38.8436 46.2013 38.8644 46.1941 38.8915 46.1941H41.9805C41.9925 46.1941 42.0045 46.1981 42.0117 46.2005C42.0168 46.203 42.0219 46.2057 42.0269 46.2085V47.2274C42.0269 47.2402 42.0045 47.2458 41.9805 47.2458Z" fill="#6CB5C6"/>
<path opacity="0.6" d="M47.2945 40.8072V51.0802C47.2945 51.1658 47.2697 51.2361 47.2385 51.2361H43.5145C43.4849 51.2361 43.4569 51.1658 43.4569 51.0802V44.8015V40.8072C43.4569 40.7608 43.4633 40.7248 43.4729 40.7008V40.6984L43.4769 40.6952C43.4881 40.6696 43.4993 40.6512 43.5177 40.6512H47.2409C47.2673 40.6528 47.2945 40.7232 47.2945 40.8072Z" fill="#25333A"/>
<path opacity="0.6" d="M41.8445 46.7899V51.1738C41.8445 51.2114 41.8261 51.2409 41.8013 51.2409H39.1499C39.1307 51.2409 39.1123 51.2114 39.1123 51.1738V48.4927V46.7899C39.1123 46.7731 39.1155 46.7539 39.1235 46.7443V46.7427L39.1403 46.7243H41.8037C41.8261 46.7243 41.8445 46.7539 41.8445 46.7899Z" fill="#25333A"/>
<path d="M33.3599 36.309C35.0345 36.309 36.3921 34.8816 36.3921 33.1208C36.3921 31.3601 35.0345 29.9327 33.3599 29.9327C31.6853 29.9327 30.3278 31.3601 30.3278 33.1208C30.3278 34.8816 31.6853 36.309 33.3599 36.309Z" fill="#4D606D"/>
<path d="M37.8454 33.8487H37.2279V33.0065C37.2279 32.8305 37.0783 32.7506 36.8968 32.7506H29.8151C29.6319 32.7506 29.548 32.8329 29.548 33.0065V33.8487H28.8641C28.6809 33.8487 28.453 33.9783 28.453 34.1519V50.9402C28.453 51.1138 28.6777 51.2402 28.8641 51.2402H37.8494C38.0325 51.2402 38.1669 51.1138 38.1669 50.9402V46.5132V38.3526V34.1519C38.1645 33.9783 38.0301 33.8487 37.8454 33.8487Z" fill="#657E93"/>
<path d="M37.8934 35.6923H37.2751V34.9413C37.2751 34.7869 37.1247 34.7133 36.944 34.7133H36.4017C36.2249 33.2969 34.958 32.1963 33.4023 32.1963C31.8499 32.1963 30.5829 33.2993 30.4046 34.7133H29.8639C29.6807 34.7133 29.5967 34.7869 29.5967 34.9413V35.6923H28.9121C28.7289 35.6923 28.5002 35.8091 28.5002 35.9627V50.9667C28.5002 51.1218 28.7249 51.237 28.9121 51.237H37.8974C38.0821 51.237 38.2149 51.1218 38.2149 50.9667V47.0099V39.7195V35.9627C38.2125 35.8091 38.0781 35.6923 37.8934 35.6923Z" fill="#5D7382"/>
<path d="M7.24316 20.2245H20.3267V51.237H7.24316V20.2245Z" fill="#657E93"/>
<path d="M7.21597 23.6157H18.5639V51.2378H7.21597V23.6157Z" fill="#607887"/>
<path d="M7.24316 22.4032H20.3267V24.8267H7.24316V22.4032Z" fill="#7A94A5"/>
<path d="M7.24316 26.2815H20.3267V28.4611H7.24316V26.2815Z" fill="#7A94A5"/>
<path d="M7.24316 30.1559H20.3267V32.5794H7.24316V30.1559Z" fill="#7A94A5"/>
<path d="M7.24316 34.2766H20.3267V36.7001H7.24316V34.2766Z" fill="#7A94A5"/>
<path d="M7.24316 38.3917H20.3267V40.8152H7.24316V38.3917Z" fill="#7A94A5"/>
<path d="M7.24316 42.2725H20.3267V44.696H7.24316V42.2725Z" fill="#7A94A5"/>
<path d="M7.24316 46.39H20.3267V48.8135H7.24316V46.39Z" fill="#7A94A5"/>
<path d="M21.9688 38.8157H27.2092V51.2394H21.9688V38.8157Z" fill="#556977"/>
<path d="M21.9608 40.1753H26.5094V51.2402H21.9608V40.1753Z" fill="#607887"/>
<path d="M21.9688 39.6882H27.2092V40.6568H21.9688V39.6882Z" fill="#7A94A5"/>
<path d="M21.9688 41.2391H27.2092V42.1125H21.9688V41.2391Z" fill="#7A94A5"/>
<path d="M21.9688 42.7908H27.2092V43.7626H21.9688V42.7908Z" fill="#7A94A5"/>
<path d="M21.9688 44.4384H27.2092V45.4102H21.9688V44.4384Z" fill="#7A94A5"/>
<path d="M21.9688 46.0933H27.2092V47.0651H21.9688V46.0933Z" fill="#7A94A5"/>
<path d="M21.9688 47.6457H27.2092V48.6159H21.9688V47.6457Z" fill="#7A94A5"/>
<path d="M21.9688 49.2934H27.2092V50.2668H21.9688V49.2934Z" fill="#7A94A5"/>
<path d="M30.4893 36.3122C30.4893 36.3937 30.4206 36.5105 30.3358 36.5105H29.4736C29.3896 36.5105 29.3952 36.3937 29.3952 36.3122V35.1388C29.3952 35.0564 29.388 34.9436 29.4736 34.9436H30.3358C30.4206 34.9436 30.4893 35.058 30.4893 35.1388V36.3122Z" fill="#89BAD3"/>
<path d="M32.2146 36.3122C32.2146 36.3937 32.1042 36.5105 32.0194 36.5105H31.1556C31.0692 36.5105 30.9628 36.3937 30.9628 36.3122V35.1388C30.9628 35.0564 31.0692 34.9436 31.1556 34.9436H32.0194C32.1042 34.9436 32.2146 35.058 32.2146 35.1388V36.3122Z" fill="#89BAD3"/>
<path d="M33.9422 36.3122C33.9422 36.3937 33.8214 36.5105 33.7326 36.5105H32.8704C32.7872 36.5105 32.6873 36.3937 32.6873 36.3122V35.1388C32.6873 35.0564 32.7872 34.9436 32.8704 34.9436H33.7326C33.8182 34.9436 33.9422 35.058 33.9422 35.1388V36.3122Z" fill="#89BAD3"/>
<path d="M35.5019 36.3122C35.5019 36.3937 35.4955 36.5105 35.4139 36.5105H34.5501C34.4653 36.5105 34.4069 36.3937 34.4069 36.3122V35.1388C34.4069 35.0564 34.4629 34.9436 34.5501 34.9436H35.4139C35.4971 34.9436 35.5019 35.058 35.5019 35.1388V36.3122Z" fill="#89BAD3"/>
<path d="M30.4893 38.3293C30.4893 38.4125 30.439 38.5501 30.3534 38.5501H29.4896C29.4064 38.5501 29.3952 38.4101 29.3952 38.3293V37.1592C29.3952 37.076 29.408 36.9832 29.4896 36.9832H30.3534C30.4382 36.9832 30.4893 37.0744 30.4893 37.1592V38.3293Z" fill="#89BAD3"/>
<path d="M32.2146 38.3293C32.2146 38.4125 32.1226 38.5501 32.0322 38.5501H31.17C31.0868 38.5501 30.9604 38.4101 30.9604 38.3293V37.1592C30.9604 37.076 31.0852 36.9832 31.17 36.9832H32.0322C32.1194 36.9832 32.2146 37.0744 32.2146 37.1592V38.3293Z" fill="#89BAD3"/>
<path d="M33.9422 38.3293C33.9422 38.4125 33.8358 38.5501 33.7526 38.5501H32.8888C32.8056 38.5501 32.6873 38.4101 32.6873 38.3293V37.1592C32.6873 37.076 32.804 36.9832 32.8888 36.9832H33.7526C33.8358 36.9832 33.9422 37.0744 33.9422 37.1592V38.3293Z" fill="#89BAD3"/>
<path d="M35.6618 38.3293C35.6618 38.4125 35.5123 38.5501 35.4291 38.5501H34.5669C34.4829 38.5501 34.4077 38.4101 34.4077 38.3293V37.1592C34.4077 37.076 34.4829 36.9832 34.5669 36.9832H35.4291C35.5123 36.9832 35.6618 37.0744 35.6618 37.1592V38.3293Z" fill="#89BAD3"/>
<path d="M30.4893 40.3673C30.4893 40.4489 30.431 40.592 30.3414 40.592H29.4784C29.3952 40.592 29.3952 40.4465 29.3952 40.3673V39.1956C29.3952 39.1124 29.3968 39.0252 29.4784 39.0252H30.3414C30.4286 39.0252 30.4893 39.1124 30.4893 39.1956V40.3673Z" fill="#89BAD3"/>
<path d="M32.2146 40.3673C32.2146 40.4489 32.1114 40.592 32.0258 40.592H31.1644C31.0804 40.592 30.9628 40.4465 30.9628 40.3673V39.1956C30.9628 39.1124 31.0796 39.0252 31.1644 39.0252H32.0258C32.1114 39.0252 32.2146 39.1124 32.2146 39.1956V40.3673Z" fill="#89BAD3"/>
<path d="M33.9422 40.3673C33.9422 40.4489 33.8278 40.592 33.7406 40.592H32.8808C32.796 40.592 32.6873 40.4465 32.6873 40.3673V39.1956C32.6873 39.1124 32.796 39.0252 32.8808 39.0252H33.7406C33.8278 39.0252 33.9422 39.1124 33.9422 39.1956V40.3673Z" fill="#89BAD3"/>
<path d="M35.5019 40.3673C35.5019 40.4489 35.5051 40.592 35.4187 40.592H34.5573C34.4741 40.592 34.4069 40.4465 34.4069 40.3673V39.1956C34.4069 39.1124 34.4725 39.0252 34.5573 39.0252H35.4195C35.5035 39.0252 35.5027 39.1124 35.5027 39.1956V40.3673" fill="#89BAD3"/>
<path d="M30.4893 42.3796C30.4893 42.4612 30.447 42.466 30.3622 42.466H29.4984C29.4152 42.466 29.3952 42.4596 29.3952 42.3796V41.2071C29.3952 41.1255 29.4144 41.0567 29.4984 41.0567H30.3622C30.447 41.0567 30.4893 41.1255 30.4893 41.2071V42.3796Z" fill="#89BAD3"/>
<path d="M32.2146 42.3796C32.2146 42.4612 32.1314 42.466 32.0442 42.466H31.182C31.0972 42.466 30.9628 42.4596 30.9628 42.3796V41.2071C30.9628 41.1255 31.0972 41.0567 31.182 41.0567H32.0442C32.129 41.0567 32.2146 41.1255 32.2146 41.2071V42.3796Z" fill="#89BAD3"/>
<path d="M33.9422 42.3796C33.9422 42.4612 33.8454 42.466 33.759 42.466H32.8976C32.8144 42.466 32.6865 42.4596 32.6865 42.3796V41.2071C32.6865 41.1255 32.8112 41.0567 32.8976 41.0567H33.7598C33.8438 41.0567 33.943 41.1255 33.943 41.2071V42.3796H33.9422Z" fill="#89BAD3"/>
<path d="M35.6618 42.3796C35.6618 42.4612 35.5219 42.466 35.4403 42.466H34.5765C34.4893 42.466 34.4077 42.4596 34.4077 42.3796V41.2071C34.4077 41.1255 34.4893 41.0567 34.5765 41.0567H35.4403C35.5235 41.0567 35.6618 41.1255 35.6618 41.2071V42.3796Z" fill="#89BAD3"/>
<path d="M30.4893 44.4304C30.4893 44.5128 30.431 44.5024 30.3414 44.5024H29.4784C29.3952 44.5024 29.3952 44.5128 29.3952 44.4304V43.2586C29.3952 43.1754 29.3968 43.0931 29.4784 43.0931H30.3414C30.4286 43.0931 30.4893 43.1762 30.4893 43.2586V44.4304Z" fill="#89BAD3"/>
<path d="M32.2146 44.4304C32.2146 44.5128 32.1114 44.5024 32.0258 44.5024H31.1644C31.0804 44.5024 30.9628 44.5128 30.9628 44.4304V43.2586C30.9628 43.1754 31.0796 43.0931 31.1644 43.0931H32.0258C32.1114 43.0931 32.2146 43.1762 32.2146 43.2586V44.4304Z" fill="#89BAD3"/>
<path d="M33.9422 44.4304C33.9422 44.5128 33.8278 44.5024 33.7406 44.5024H32.8808C32.796 44.5024 32.6873 44.5128 32.6873 44.4304V43.2586C32.6873 43.1754 32.796 43.0931 32.8808 43.0931H33.7406C33.8278 43.0931 33.9422 43.1762 33.9422 43.2586V44.4304Z" fill="#89BAD3"/>
<path d="M35.5019 44.4304C35.5019 44.5128 35.5051 44.5024 35.4187 44.5024H34.5573C34.4741 44.5024 34.4069 44.5128 34.4069 44.4304V43.2586C34.4069 43.1754 34.4725 43.0931 34.5573 43.0931H35.4195C35.5035 43.0931 35.5027 43.1762 35.5027 43.2586V44.4304" fill="#89BAD3"/>
<path d="M30.4893 46.446C30.4893 46.5291 30.447 46.5395 30.3622 46.5395H29.4984C29.4152 46.5395 29.3952 46.5275 29.3952 46.446V45.2742C29.3952 45.1918 29.4144 45.1294 29.4984 45.1294H30.3622C30.447 45.1294 30.4893 45.1918 30.4893 45.2742V46.446Z" fill="#89BAD3"/>
<path d="M32.2146 46.446C32.2146 46.5291 32.1314 46.5395 32.0442 46.5395H31.182C31.0972 46.5395 30.9628 46.5275 30.9628 46.446V45.2742C30.9628 45.1918 31.0972 45.1294 31.182 45.1294H32.0442C32.129 45.1294 32.2146 45.1918 32.2146 45.2742V46.446Z" fill="#89BAD3"/>
<path d="M33.9422 46.446C33.9422 46.5291 33.8454 46.5395 33.759 46.5395H32.8976C32.8144 46.5395 32.6865 46.5275 32.6865 46.446V45.2742C32.6865 45.1918 32.8112 45.1294 32.8976 45.1294H33.7598C33.8438 45.1294 33.943 45.1918 33.943 45.2742V46.446H33.9422Z" fill="#89BAD3"/>
<path d="M35.6618 46.446C35.6618 46.5291 35.5219 46.5395 35.4403 46.5395H34.5765C34.4893 46.5395 34.4077 46.5275 34.4077 46.446V45.2742C34.4077 45.1918 34.4893 45.1294 34.5765 45.1294H35.4403C35.5235 45.1294 35.6618 45.1918 35.6618 45.2742V46.446Z" fill="#89BAD3"/>
<path d="M37.2295 36.3122C37.2295 36.3937 37.1983 36.5105 37.1127 36.5105H36.2521C36.1649 36.5105 36.1321 36.3937 36.1321 36.3122V35.1388C36.1321 35.0564 36.1649 34.9436 36.2521 34.9436H37.1127C37.1967 34.9436 37.2295 35.058 37.2295 35.1388V36.3122Z" fill="#89BAD3"/>
<path d="M37.2295 38.3293C37.2295 38.4125 37.2159 38.5501 37.1295 38.5501H36.2681C36.1801 38.5501 36.1289 38.4101 36.1289 38.3293V37.1592C36.1289 37.076 36.1793 36.9832 36.2681 36.9832H37.1287C37.2143 36.9832 37.2271 37.0744 37.2271 37.1592V38.3293H37.2295Z" fill="#89BAD3"/>
<path d="M37.2295 40.3673C37.2295 40.4489 37.2079 40.592 37.1207 40.592H36.2577C36.1721 40.592 36.1313 40.4465 36.1313 40.3673V39.1956C36.1313 39.1124 36.1721 39.0252 36.2577 39.0252H37.1207C37.2055 39.0252 37.2295 39.1124 37.2295 39.1956V40.3673Z" fill="#89BAD3"/>
<path d="M37.2295 42.3796C37.2295 42.4612 37.2263 42.466 37.1415 42.466H36.2785C36.1913 42.466 36.1313 42.4596 36.1313 42.3796V41.2071C36.1313 41.1255 36.1905 41.0567 36.2785 41.0567H37.1415C37.2263 41.0567 37.2295 41.1255 37.2295 41.2071V42.3796Z" fill="#89BAD3"/>
<path d="M37.2295 44.4304C37.2295 44.5128 37.2079 44.5024 37.1207 44.5024H36.2577C36.1721 44.5024 36.1313 44.5128 36.1313 44.4304V43.2586C36.1313 43.1754 36.1721 43.0931 36.2577 43.0931H37.1207C37.2055 43.0931 37.2295 43.1762 37.2295 43.2586V44.4304Z" fill="#89BAD3"/>
<path d="M37.2295 46.446C37.2295 46.5291 37.2263 46.5395 37.1415 46.5395H36.2785C36.1913 46.5395 36.1313 46.5275 36.1313 46.446V45.2742C36.1313 45.1918 36.1905 45.1294 36.2785 45.1294H37.1415C37.2263 45.1294 37.2295 45.1918 37.2295 45.2742V46.446Z" fill="#89BAD3"/>
<path d="M30.4893 48.5016C30.4893 48.5847 30.4294 48.5807 30.3398 48.5807H29.4784C29.3952 48.5807 29.3952 48.5855 29.3952 48.5016V47.3314C29.3952 47.2498 29.3952 47.169 29.4784 47.169H30.3398C30.4254 47.169 30.4893 47.2514 30.4893 47.3314V48.5016Z" fill="#89BAD3"/>
<path d="M32.2146 48.5016C32.2146 48.5847 32.109 48.5807 32.0258 48.5807H31.1628C31.0796 48.5807 30.9628 48.5855 30.9628 48.5016V47.3314C30.9628 47.2498 31.0796 47.169 31.1628 47.169H32.0258C32.109 47.169 32.2146 47.2514 32.2146 47.3314V48.5016Z" fill="#89BAD3"/>
<path d="M33.9422 48.5016C33.9422 48.5847 33.8254 48.5807 33.7406 48.5807H32.8768C32.7936 48.5807 32.6873 48.5855 32.6873 48.5016V47.3314C32.6873 47.2498 32.796 47.169 32.8768 47.169H33.7406C33.8246 47.169 33.9422 47.2514 33.9422 47.3314V48.5016Z" fill="#89BAD3"/>
<path d="M35.5019 48.5016C35.5019 48.5847 35.5051 48.5807 35.4187 48.5807H34.5573C34.4717 48.5807 34.4069 48.5855 34.4069 48.5016V47.3314C34.4069 47.2498 34.4693 47.169 34.5573 47.169H35.4195C35.5051 47.169 35.5027 47.2514 35.5027 47.3314V48.5016" fill="#89BAD3"/>
<path d="M30.4893 50.5171C30.4893 50.6003 30.4454 50.6123 30.3606 50.6123H29.4968C29.4136 50.6123 29.3952 50.5979 29.3952 50.5171V49.3438C29.3952 49.2606 29.4128 49.203 29.4968 49.203H30.3606C30.4454 49.203 30.4893 49.2598 30.4893 49.3438V50.5171Z" fill="#89BAD3"/>
<path d="M32.2146 50.5171C32.2146 50.6003 32.1298 50.6123 32.0402 50.6123H31.1804C31.094 50.6123 30.9628 50.5979 30.9628 50.5171V49.3438C30.9628 49.2606 31.094 49.203 31.1804 49.203H32.0402C32.1258 49.203 32.2146 49.2598 32.2146 49.3438V50.5171Z" fill="#89BAD3"/>
<path d="M33.9422 50.5171C33.9422 50.6003 33.8454 50.6123 33.7574 50.6123H32.8992C32.812 50.6123 32.6873 50.5979 32.6873 50.5171V49.3438C32.6873 49.2606 32.8096 49.203 32.8992 49.203H33.7574C33.8454 49.203 33.9422 49.2598 33.9422 49.3438V50.5171Z" fill="#89BAD3"/>
<path d="M35.6618 50.5171C35.6618 50.6003 35.5203 50.6123 35.4355 50.6123H34.5717C34.4885 50.6123 34.4061 50.5979 34.4061 50.5171V49.3438C34.4061 49.2606 34.4885 49.203 34.5717 49.203H35.4339C35.5195 49.203 35.6602 49.2598 35.6602 49.3438V50.5171H35.6618Z" fill="#89BAD3"/>
<path d="M37.2295 48.5016C37.2295 48.5847 37.2079 48.5807 37.1175 48.5807H36.2553C36.1721 48.5807 36.1313 48.5855 36.1313 48.5016V47.3314C36.1313 47.2498 36.1721 47.169 36.2553 47.169H37.1175C37.2055 47.169 37.2295 47.2514 37.2295 47.3314V48.5016Z" fill="#89BAD3"/>
<path d="M37.2295 50.5171C37.2295 50.6003 37.2223 50.6123 37.1375 50.6123H36.2761C36.1889 50.6123 36.1305 50.5979 36.1305 50.5171V49.3438C36.1305 49.2606 36.1873 49.203 36.2761 49.203H37.1367C37.2215 49.203 37.2287 49.2598 37.2287 49.3438V50.5171" fill="#89BAD3"/>
</g>
<defs>
<clipPath id="clip0">
<rect width="51.189" height="51.189" fill="white" transform="translate(0.157481)"/>
</clipPath>
</defs>
</svg>
