<svg width="140" height="47" viewBox="0 0 140 47" fill="none" xmlns="http://www.w3.org/2000/svg">
<g clip-path="url(#clip0)" filter="url(#filter0_ii)">
<path d="M72.5881 24.0375V25.9479H62.4727V24.0375C62.4727 23.1506 61.4005 22.7065 60.7734 23.3336L57.2039 26.903C56.8152 27.2918 56.8152 27.922 57.2039 28.3108L60.7734 31.8802C61.4004 32.5073 62.4727 32.0632 62.4727 31.1763V29.266H72.5881V31.1764C72.5881 32.0632 73.6603 32.5073 74.2874 31.8802L77.8569 28.3108C78.2456 27.9221 78.2456 27.2918 77.8569 26.9031L74.2874 23.3336C73.6603 22.7065 72.5881 23.1506 72.5881 24.0375V24.0375Z" fill="white"/>
</g>
<g clip-path="url(#clip1)" filter="url(#filter1_ii)">
<path d="M37.4417 0C32.6805 0 28.8013 3.87918 28.8013 8.6404C28.8013 13.4016 32.6805 17.2808 37.4417 17.2808C42.2029 17.2808 46.0821 13.4016 46.0821 8.6404C46.0821 3.87918 42.2029 0 37.4417 0ZM37.4417 11.5205C35.8486 11.5205 34.5616 10.2335 34.5616 8.6404C34.5616 7.04732 35.8486 5.76026 37.4417 5.76026C39.0348 5.76026 40.3219 7.04732 40.3219 8.6404C40.3219 10.2335 39.0348 11.5205 37.4417 11.5205ZM23.0411 10.0805C23.0411 4.50921 18.5319 0 12.9606 0C7.38934 0 2.88013 4.50921 2.88013 10.0805V25.0662C1.10705 27.2893 0 30.0614 0 33.1215C0 40.2768 5.80527 46.0821 12.9606 46.0821C20.1159 46.0821 25.9212 40.2768 25.9212 33.1215C25.9212 30.0614 24.8141 27.2803 23.0411 25.0662V10.0805ZM12.9606 40.3219C8.99141 40.3219 5.76026 37.0907 5.76026 33.1215C5.76026 30.8264 6.85831 28.7203 8.6404 27.3793V10.0805C8.6404 7.69535 10.5755 5.76026 12.9606 5.76026C15.3457 5.76026 17.2808 7.69535 17.2808 10.0805V27.3793C19.0629 28.7113 20.1609 30.8264 20.1609 33.1215C20.1609 37.0907 16.9298 40.3219 12.9606 40.3219ZM14.4007 29.0623V27.3613C14.4007 26.5692 13.7526 25.9212 12.9606 25.9212C12.1686 25.9212 11.5205 26.5692 11.5205 27.3613V29.0623C9.84645 29.6564 8.6404 31.2404 8.6404 33.1215C8.6404 35.5066 10.5755 37.4417 12.9606 37.4417C15.3457 37.4417 17.2808 35.5066 17.2808 33.1215C17.2808 31.2404 16.0747 29.6564 14.4007 29.0623Z" fill="white"/>
</g>
<path d="M50.2937 31.4949C49.467 31.4949 48.707 31.3415 48.0137 31.0349C47.3204 30.7282 46.7137 30.2882 46.1937 29.7149C45.687 29.1282 45.287 28.4149 44.9937 27.5749C44.7137 26.7215 44.5737 25.7615 44.5737 24.6949C44.5737 23.6415 44.7204 22.6949 45.0137 21.8549C45.307 21.0149 45.7137 20.3015 46.2337 19.7149C46.7537 19.1282 47.367 18.6815 48.0737 18.3749C48.7804 18.0549 49.5537 17.8949 50.3937 17.8949C51.1937 17.8949 51.8937 18.0615 52.4937 18.3949C53.107 18.7149 53.607 19.0882 53.9937 19.5149L53.0937 20.5949C52.747 20.2215 52.3537 19.9215 51.9137 19.6949C51.4737 19.4682 50.9737 19.3549 50.4137 19.3549C49.787 19.3549 49.2204 19.4815 48.7137 19.7349C48.207 19.9749 47.7737 20.3282 47.4137 20.7949C47.0537 21.2482 46.7737 21.8015 46.5737 22.4549C46.387 23.1082 46.2937 23.8415 46.2937 24.6549C46.2937 25.4815 46.387 26.2282 46.5737 26.8949C46.7737 27.5482 47.047 28.1082 47.3937 28.5749C47.7404 29.0415 48.1604 29.4015 48.6537 29.6549C49.1604 29.9082 49.727 30.0349 50.3537 30.0349C50.9937 30.0349 51.5537 29.9082 52.0337 29.6549C52.5137 29.3882 52.967 29.0215 53.3937 28.5549L54.3137 29.5949C53.7937 30.1949 53.207 30.6615 52.5537 30.9949C51.9004 31.3282 51.147 31.4949 50.2937 31.4949Z" fill="white"/>
<g clip-path="url(#clip2)" filter="url(#filter2_ii)">
<path d="M123.66 0C118.899 0 115.02 3.87918 115.02 8.6404C115.02 13.4016 118.899 17.2808 123.66 17.2808C128.421 17.2808 132.3 13.4016 132.3 8.6404C132.3 3.87918 128.421 0 123.66 0ZM123.66 11.5205C122.067 11.5205 120.78 10.2335 120.78 8.6404C120.78 7.04732 122.067 5.76026 123.66 5.76026C125.253 5.76026 126.54 7.04732 126.54 8.6404C126.54 10.2335 125.253 11.5205 123.66 11.5205ZM109.259 10.0805C109.259 4.50921 104.75 0 99.1789 0C93.6076 0 89.0984 4.50921 89.0984 10.0805V25.0662C87.3253 27.2893 86.2183 30.0614 86.2183 33.1215C86.2183 40.2768 92.0235 46.0821 99.1789 46.0821C106.334 46.0821 112.139 40.2768 112.139 33.1215C112.139 30.0614 111.032 27.2803 109.259 25.0662V10.0805ZM99.1789 40.3219C95.2097 40.3219 91.9785 37.0907 91.9785 33.1215C91.9785 30.8264 93.0766 28.7203 94.8587 27.3793V10.0805C94.8587 7.69535 96.7937 5.76026 99.1789 5.76026C101.564 5.76026 103.499 7.69535 103.499 10.0805V27.3793C105.281 28.7113 106.379 30.8264 106.379 33.1215C106.379 37.0907 103.148 40.3219 99.1789 40.3219ZM100.619 29.0623V27.3613C100.619 26.5692 99.9709 25.9212 99.1789 25.9212C98.3868 25.9212 97.7388 26.5692 97.7388 27.3613V29.0623C96.0647 29.6564 94.8587 31.2404 94.8587 33.1215C94.8587 35.5066 96.7937 37.4417 99.1789 37.4417C101.564 37.4417 103.499 35.5066 103.499 33.1215C103.499 31.2404 102.293 29.6564 100.619 29.0623Z" fill="white"/>
</g>
<path d="M131.552 31.2549V18.1349H139.112V19.5349H133.212V23.9749H138.212V25.3749H133.212V31.2549H131.552Z" fill="white"/>
<defs>
<filter id="filter0_ii" x="52.9124" y="12.9888" width="25.236" height="25.236" filterUnits="userSpaceOnUse" color-interpolation-filters="sRGB">
<feFlood flood-opacity="0" result="BackgroundImageFix"/>
<feBlend mode="normal" in="SourceGraphic" in2="BackgroundImageFix" result="shape"/>
<feColorMatrix in="SourceAlpha" type="matrix" values="0 0 0 0 0 0 0 0 0 0 0 0 0 0 0 0 0 0 127 0" result="hardAlpha"/>
<feOffset dy="-12"/>
<feGaussianBlur stdDeviation="2"/>
<feComposite in2="hardAlpha" operator="arithmetic" k2="-1" k3="1"/>
<feColorMatrix type="matrix" values="0 0 0 0 0.32549 0 0 0 0 0.470588 0 0 0 0 0.584314 0 0 0 0.15 0"/>
<feBlend mode="normal" in2="shape" result="effect1_innerShadow"/>
<feColorMatrix in="SourceAlpha" type="matrix" values="0 0 0 0 0 0 0 0 0 0 0 0 0 0 0 0 0 0 127 0" result="hardAlpha"/>
<feOffset dx="-12"/>
<feGaussianBlur stdDeviation="2"/>
<feComposite in2="hardAlpha" operator="arithmetic" k2="-1" k3="1"/>
<feColorMatrix type="matrix" values="0 0 0 0 0.0352941 0 0 0 0 0.12549 0 0 0 0 0.247059 0 0 0 0.15 0"/>
<feBlend mode="normal" in2="effect1_innerShadow" result="effect2_innerShadow"/>
</filter>
<filter id="filter1_ii" x="-4" y="-4" width="50.0821" height="50.0821" filterUnits="userSpaceOnUse" color-interpolation-filters="sRGB">
<feFlood flood-opacity="0" result="BackgroundImageFix"/>
<feBlend mode="normal" in="SourceGraphic" in2="BackgroundImageFix" result="shape"/>
<feColorMatrix in="SourceAlpha" type="matrix" values="0 0 0 0 0 0 0 0 0 0 0 0 0 0 0 0 0 0 127 0" result="hardAlpha"/>
<feOffset dy="-12"/>
<feGaussianBlur stdDeviation="2"/>
<feComposite in2="hardAlpha" operator="arithmetic" k2="-1" k3="1"/>
<feColorMatrix type="matrix" values="0 0 0 0 0.32549 0 0 0 0 0.470588 0 0 0 0 0.584314 0 0 0 0.15 0"/>
<feBlend mode="normal" in2="shape" result="effect1_innerShadow"/>
<feColorMatrix in="SourceAlpha" type="matrix" values="0 0 0 0 0 0 0 0 0 0 0 0 0 0 0 0 0 0 127 0" result="hardAlpha"/>
<feOffset dx="-12"/>
<feGaussianBlur stdDeviation="2"/>
<feComposite in2="hardAlpha" operator="arithmetic" k2="-1" k3="1"/>
<feColorMatrix type="matrix" values="0 0 0 0 0.0352941 0 0 0 0 0.12549 0 0 0 0 0.247059 0 0 0 0.15 0"/>
<feBlend mode="normal" in2="effect1_innerShadow" result="effect2_innerShadow"/>
</filter>
<filter id="filter2_ii" x="82.2183" y="-4" width="50.0821" height="50.0821" filterUnits="userSpaceOnUse" color-interpolation-filters="sRGB">
<feFlood flood-opacity="0" result="BackgroundImageFix"/>
<feBlend mode="normal" in="SourceGraphic" in2="BackgroundImageFix" result="shape"/>
<feColorMatrix in="SourceAlpha" type="matrix" values="0 0 0 0 0 0 0 0 0 0 0 0 0 0 0 0 0 0 127 0" result="hardAlpha"/>
<feOffset dy="-12"/>
<feGaussianBlur stdDeviation="2"/>
<feComposite in2="hardAlpha" operator="arithmetic" k2="-1" k3="1"/>
<feColorMatrix type="matrix" values="0 0 0 0 0.32549 0 0 0 0 0.470588 0 0 0 0 0.584314 0 0 0 0.15 0"/>
<feBlend mode="normal" in2="shape" result="effect1_innerShadow"/>
<feColorMatrix in="SourceAlpha" type="matrix" values="0 0 0 0 0 0 0 0 0 0 0 0 0 0 0 0 0 0 127 0" result="hardAlpha"/>
<feOffset dx="-12"/>
<feGaussianBlur stdDeviation="2"/>
<feComposite in2="hardAlpha" operator="arithmetic" k2="-1" k3="1"/>
<feColorMatrix type="matrix" values="0 0 0 0 0.0352941 0 0 0 0 0.12549 0 0 0 0 0.247059 0 0 0 0.15 0"/>
<feBlend mode="normal" in2="effect1_innerShadow" result="effect2_innerShadow"/>
</filter>
<clipPath id="clip0">
<rect width="21.236" height="21.236" fill="white" transform="translate(56.9124 16.9888)"/>
</clipPath>
<clipPath id="clip1">
<rect width="46.0821" height="46.0821" fill="white"/>
</clipPath>
<clipPath id="clip2">
<rect width="46.0821" height="46.0821" fill="white" transform="translate(86.2183)"/>
</clipPath>
</defs>
</svg>
