<svg width="61" height="61" viewBox="0 0 61 61" fill="none" xmlns="http://www.w3.org/2000/svg">
<g clip-path="url(#clip0)" filter="url(#filter0_ii)">
<path d="M49.1222 0C42.8756 0 37.7863 5.08934 37.7863 11.3359C37.7863 17.5824 42.8756 22.6718 49.1222 22.6718C55.3687 22.6718 60.458 17.5824 60.458 11.3359C60.458 5.08934 55.3687 0 49.1222 0ZM49.1222 15.1145C47.0321 15.1145 45.3435 13.4259 45.3435 11.3359C45.3435 9.24583 47.0321 7.55725 49.1222 7.55725C51.2122 7.55725 52.9008 9.24583 52.9008 11.3359C52.9008 13.4259 51.2122 15.1145 49.1222 15.1145ZM30.229 13.2252C30.229 5.91591 24.3131 0 17.0038 0C9.69454 0 3.77863 5.91591 3.77863 13.2252V32.8859C1.45241 35.8025 0 39.4394 0 43.4542C0 52.8417 7.6163 60.458 17.0038 60.458C26.3914 60.458 34.0076 52.8417 34.0076 43.4542C34.0076 39.4394 32.5552 35.7907 30.229 32.8859V13.2252ZM17.0038 52.9008C11.7964 52.9008 7.55725 48.6616 7.55725 43.4542C7.55725 40.4431 8.99786 37.68 11.3359 35.9206V13.2252C11.3359 10.096 13.8746 7.55725 17.0038 7.55725C20.133 7.55725 22.6718 10.096 22.6718 13.2252V35.9206C25.0098 37.6682 26.4504 40.4431 26.4504 43.4542C26.4504 48.6616 22.2112 52.9008 17.0038 52.9008ZM18.8931 38.1287V35.897C18.8931 34.8578 18.0429 34.0076 17.0038 34.0076C15.9647 34.0076 15.1145 34.8578 15.1145 35.897V38.1287C12.9182 38.9081 11.3359 40.9863 11.3359 43.4542C11.3359 46.5834 13.8746 49.1222 17.0038 49.1222C20.133 49.1222 22.6718 46.5834 22.6718 43.4542C22.6718 40.9863 21.0895 38.9081 18.8931 38.1287Z" fill="white"/>
</g>
<g clip-path="url(#clip1)">
<path d="M49.1237 0C42.877 0 37.7875 5.0895 37.7875 11.3362C37.7875 17.583 42.877 22.6725 49.1237 22.6725C55.3705 22.6725 60.46 17.583 60.46 11.3362C60.46 5.0895 55.3705 0 49.1237 0ZM49.1237 15.115C47.0336 15.115 45.345 13.4264 45.345 11.3362C45.345 9.24613 47.0336 7.5575 49.1237 7.5575C51.2139 7.5575 52.9025 9.24613 52.9025 11.3362C52.9025 13.4264 51.2139 15.115 49.1237 15.115ZM30.23 13.2256C30.23 5.91611 24.3139 0 17.0044 0C9.69486 0 3.77875 5.91611 3.77875 13.2256V32.8869C1.45246 35.8037 0 39.4407 0 43.4556C0 52.8435 7.61654 60.46 17.0044 60.46C26.3922 60.46 34.0087 52.8435 34.0087 43.4556C34.0087 39.4407 32.5563 35.7918 30.23 32.8869V13.2256ZM17.0044 52.9025C11.7968 52.9025 7.5575 48.6632 7.5575 43.4556C7.5575 40.4444 8.99815 37.6812 11.3362 35.9217V13.2256C11.3362 10.0963 13.8751 7.5575 17.0044 7.5575C20.1337 7.5575 22.6725 10.0963 22.6725 13.2256V35.9217C25.0106 37.6694 26.4512 40.4444 26.4512 43.4556C26.4512 48.6632 22.212 52.9025 17.0044 52.9025ZM18.8937 38.1299V35.8981C18.8937 34.859 18.0435 34.0087 17.0044 34.0087C15.9652 34.0087 15.115 34.859 15.115 35.8981V38.1299C12.9186 38.9093 11.3362 40.9876 11.3362 43.4556C11.3362 46.5849 13.8751 49.1237 17.0044 49.1237C20.1337 49.1237 22.6725 46.5849 22.6725 43.4556C22.6725 40.9876 21.0901 38.9093 18.8937 38.1299Z" fill="white"/>
</g>
<defs>
<filter id="filter0_ii" x="-4" y="-4" width="64.458" height="64.458" filterUnits="userSpaceOnUse" color-interpolation-filters="sRGB">
<feFlood flood-opacity="0" result="BackgroundImageFix"/>
<feBlend mode="normal" in="SourceGraphic" in2="BackgroundImageFix" result="shape"/>
<feColorMatrix in="SourceAlpha" type="matrix" values="0 0 0 0 0 0 0 0 0 0 0 0 0 0 0 0 0 0 127 0" result="hardAlpha"/>
<feOffset dy="-12"/>
<feGaussianBlur stdDeviation="2"/>
<feComposite in2="hardAlpha" operator="arithmetic" k2="-1" k3="1"/>
<feColorMatrix type="matrix" values="0 0 0 0 0.32549 0 0 0 0 0.470588 0 0 0 0 0.584314 0 0 0 0.15 0"/>
<feBlend mode="normal" in2="shape" result="effect1_innerShadow"/>
<feColorMatrix in="SourceAlpha" type="matrix" values="0 0 0 0 0 0 0 0 0 0 0 0 0 0 0 0 0 0 127 0" result="hardAlpha"/>
<feOffset dx="-12"/>
<feGaussianBlur stdDeviation="2"/>
<feComposite in2="hardAlpha" operator="arithmetic" k2="-1" k3="1"/>
<feColorMatrix type="matrix" values="0 0 0 0 0.0352941 0 0 0 0 0.12549 0 0 0 0 0.247059 0 0 0 0.15 0"/>
<feBlend mode="normal" in2="effect1_innerShadow" result="effect2_innerShadow"/>
</filter>
<clipPath id="clip0">
<rect width="60.458" height="60.458" fill="white"/>
</clipPath>
<clipPath id="clip1">
<rect width="60.46" height="60.46" fill="white"/>
</clipPath>
</defs>
</svg>
