<svg width="54" height="54" viewBox="0 0 54 54" fill="none" xmlns="http://www.w3.org/2000/svg">
<path d="M26.64 0C11.92 0 0 11.9467 0 26.6667C0 41.3867 11.92 53.3333 26.64 53.3333C41.3867 53.3333 53.3333 41.3867 53.3333 26.6667C53.3333 11.9467 41.3867 0 26.64 0ZM26.6667 48C14.88 48 5.33333 38.4533 5.33333 26.6667C5.33333 14.88 14.88 5.33333 26.6667 5.33333C38.4533 5.33333 48 14.88 48 26.6667C48 38.4533 38.4533 48 26.6667 48ZM28 13.3333H24V29.3333L38 37.7333L40 34.4533L28 27.3333V13.3333Z" fill="url(#paint0_linear)"/>
<defs>
<linearGradient id="paint0_linear" x1="26.6667" y1="0" x2="26.6667" y2="53.3333" gradientUnits="userSpaceOnUse">
<stop stop-color="#F9F047"/>
<stop offset="1" stop-color="#0FD850"/>
</linearGradient>
</defs>
</svg>
