<svg width="135" height="62" viewBox="0 0 135 62" fill="none" xmlns="http://www.w3.org/2000/svg">
<g clip-path="url(#clip0)" filter="url(#filter0_ii)">
<path d="M75.1122 27.4137V29.1122H66.1186V27.4137C66.1186 26.6252 65.1652 26.2303 64.6077 26.7879L61.434 29.9615C61.0884 30.3071 61.0884 30.8675 61.434 31.2131L64.6077 34.3867C65.1652 34.9443 66.1186 34.5494 66.1186 33.7609V32.0624H75.1122V33.7609C75.1122 34.5494 76.0655 34.9443 76.6231 34.3868L79.7967 31.2132C80.1424 30.8675 80.1424 30.3072 79.7967 29.9615L76.6231 26.7879C76.0656 26.2303 75.1122 26.6252 75.1122 27.4137V27.4137Z" fill="white"/>
</g>
<path d="M30.5617 5.09814C16.4915 5.09814 5.09766 16.5174 5.09766 30.5877C5.09766 44.6579 16.4915 56.0772 30.5617 56.0772C44.6574 56.0772 56.0767 44.6579 56.0767 30.5877C56.0767 16.5174 44.6574 5.09814 30.5617 5.09814ZM30.5872 50.9793C19.3208 50.9793 10.1956 41.854 10.1956 30.5877C10.1956 19.3213 19.3208 10.196 30.5872 10.196C41.8535 10.196 50.9788 19.3213 50.9788 30.5877C50.9788 41.854 41.8535 50.9793 30.5872 50.9793ZM31.8616 17.8429H28.0382V33.1366L41.4202 41.1658L43.3319 38.0306L31.8616 31.2249V17.8429Z" fill="white"/>
<path d="M15.5832 41.147V28.027H17.2432V33.527H23.3432V28.027H25.0232V41.147H23.3432V34.967H17.2432V41.147H15.5832Z" fill="white"/>
<path d="M109.485 5.09814C95.4143 5.09814 84.0205 16.5174 84.0205 30.5877C84.0205 44.6579 95.4143 56.0772 109.485 56.0772C123.58 56.0772 135 44.6579 135 30.5877C135 16.5174 123.58 5.09814 109.485 5.09814ZM109.51 50.9793C98.2437 50.9793 89.1184 41.854 89.1184 30.5877C89.1184 19.3213 98.2437 10.196 109.51 10.196C120.776 10.196 129.902 19.3213 129.902 30.5877C129.902 41.854 120.776 50.9793 109.51 50.9793ZM110.784 17.8429H106.961V33.1366L120.343 41.1658L122.255 38.0306L110.784 31.2249V17.8429Z" fill="white"/>
<path d="M98.1461 41.387C97.2261 41.387 96.3727 41.2136 95.5861 40.867C94.7994 40.5203 94.1194 40.047 93.5461 39.447L94.5461 38.287C95.0127 38.7803 95.5594 39.1803 96.1861 39.487C96.8261 39.7803 97.4861 39.927 98.1661 39.927C99.0327 39.927 99.7061 39.7336 100.186 39.347C100.666 38.947 100.906 38.427 100.906 37.787C100.906 37.4536 100.846 37.1736 100.726 36.947C100.619 36.707 100.466 36.507 100.266 36.347C100.079 36.1736 99.8527 36.0203 99.5861 35.887C99.3194 35.7536 99.0327 35.6136 98.7261 35.467L96.8461 34.647C96.5394 34.5136 96.2261 34.3536 95.9061 34.167C95.5861 33.9803 95.2994 33.7536 95.0461 33.487C94.7927 33.2203 94.5861 32.907 94.4261 32.547C94.2661 32.1736 94.1861 31.747 94.1861 31.267C94.1861 30.7736 94.2861 30.3136 94.4861 29.887C94.6994 29.4603 94.9861 29.0936 95.3461 28.787C95.7194 28.467 96.1527 28.2203 96.6461 28.047C97.1527 27.8736 97.7061 27.787 98.3061 27.787C99.0927 27.787 99.8194 27.9403 100.486 28.247C101.153 28.5403 101.719 28.927 102.186 29.407L101.286 30.487C100.886 30.1003 100.439 29.8003 99.9461 29.587C99.4661 29.3603 98.9194 29.247 98.3061 29.247C97.5727 29.247 96.9794 29.4203 96.5261 29.767C96.0861 30.1003 95.8661 30.567 95.8661 31.167C95.8661 31.487 95.9261 31.7603 96.0461 31.987C96.1794 32.2003 96.3527 32.3936 96.5661 32.567C96.7794 32.727 97.0127 32.8736 97.2661 33.007C97.5194 33.127 97.7794 33.2403 98.0461 33.347L99.9061 34.147C100.279 34.307 100.633 34.4936 100.966 34.707C101.299 34.907 101.586 35.147 101.826 35.427C102.066 35.6936 102.253 36.0136 102.386 36.387C102.533 36.747 102.606 37.167 102.606 37.647C102.606 38.167 102.499 38.6536 102.286 39.107C102.086 39.5603 101.793 39.9603 101.406 40.307C101.019 40.6403 100.553 40.907 100.006 41.107C99.4594 41.2936 98.8394 41.387 98.1461 41.387Z" fill="white"/>
<defs>
<filter id="filter0_ii" x="57.1748" y="17.147" width="22.8811" height="22.8811" filterUnits="userSpaceOnUse" color-interpolation-filters="sRGB">
<feFlood flood-opacity="0" result="BackgroundImageFix"/>
<feBlend mode="normal" in="SourceGraphic" in2="BackgroundImageFix" result="shape"/>
<feColorMatrix in="SourceAlpha" type="matrix" values="0 0 0 0 0 0 0 0 0 0 0 0 0 0 0 0 0 0 127 0" result="hardAlpha"/>
<feOffset dy="-12"/>
<feGaussianBlur stdDeviation="2"/>
<feComposite in2="hardAlpha" operator="arithmetic" k2="-1" k3="1"/>
<feColorMatrix type="matrix" values="0 0 0 0 0.32549 0 0 0 0 0.470588 0 0 0 0 0.584314 0 0 0 0.15 0"/>
<feBlend mode="normal" in2="shape" result="effect1_innerShadow"/>
<feColorMatrix in="SourceAlpha" type="matrix" values="0 0 0 0 0 0 0 0 0 0 0 0 0 0 0 0 0 0 127 0" result="hardAlpha"/>
<feOffset dx="-12"/>
<feGaussianBlur stdDeviation="2"/>
<feComposite in2="hardAlpha" operator="arithmetic" k2="-1" k3="1"/>
<feColorMatrix type="matrix" values="0 0 0 0 0.0352941 0 0 0 0 0.12549 0 0 0 0 0.247059 0 0 0 0.15 0"/>
<feBlend mode="normal" in2="effect1_innerShadow" result="effect2_innerShadow"/>
</filter>
<clipPath id="clip0">
<rect width="18.8811" height="18.8811" fill="white" transform="translate(61.1748 21.147)"/>
</clipPath>
</defs>
</svg>
