<svg width="64" height="64" viewBox="0 0 64 64" fill="none" xmlns="http://www.w3.org/2000/svg">
<path d="M57.0827 16.2293L33.0827 5.56267C32.7414 5.41102 32.3722 5.33266 31.9987 5.33266C31.6253 5.33266 31.256 5.41102 30.9147 5.56267L6.91471 16.2293C6.86137 16.2533 6.82404 16.2933 6.77071 16.3227C6.69604 16.36 6.61604 16.384 6.54671 16.4293C6.48804 16.4693 6.44271 16.52 6.38671 16.5627C6.19178 16.7075 6.02081 16.8821 5.88004 17.08C5.82671 17.1547 5.77071 17.2213 5.72271 17.296C5.64334 17.4369 5.57556 17.5841 5.52004 17.736C5.49604 17.808 5.45871 17.8747 5.43737 17.9467C5.3704 18.1809 5.33542 18.4231 5.33337 18.6667V45.3333C5.33337 46.3893 5.95204 47.3413 6.91737 47.7707L30.9174 58.4373C31.264 58.592 31.632 58.6667 32 58.6667C32.3713 58.6572 32.7365 58.5699 33.072 58.4107L33.0827 58.4373L57.0827 47.7707C57.5544 47.5615 57.9552 47.2198 58.2364 46.7871C58.5176 46.3544 58.6671 45.8494 58.6667 45.3333V18.6667C58.6671 18.1506 58.5176 17.6456 58.2364 17.2129C57.9552 16.7802 57.5544 16.4385 57.0827 16.2293ZM32 10.92L49.4347 18.6667L32 26.4133L28.512 24.864L14.568 18.6667L32 10.92ZM10.6667 43.6027V22.7707L29.3334 31.0667V51.896L10.6667 43.6027ZM34.6667 51.896V31.0667L53.3334 22.7707V43.6027L34.6667 51.896Z" fill="white"/>
</svg>
