<svg width="54" height="54" viewBox="0 0 54 54" fill="none" xmlns="http://www.w3.org/2000/svg">
<path d="M52.0827 11.2293L28.0827 0.56267C27.7414 0.411016 27.3722 0.332657 26.9987 0.332657C26.6253 0.332657 26.256 0.411016 25.9147 0.56267L1.91471 11.2293C1.86137 11.2533 1.82404 11.2933 1.77071 11.3227C1.69604 11.36 1.61604 11.384 1.54671 11.4293C1.48804 11.4693 1.44271 11.52 1.38671 11.5627C1.19178 11.7075 1.02081 11.8821 0.880041 12.08C0.826707 12.1547 0.770707 12.2213 0.722707 12.296C0.643338 12.4369 0.57556 12.5841 0.520041 12.736C0.496041 12.808 0.458707 12.8747 0.437374 12.9467C0.370402 13.1809 0.335418 13.4231 0.333374 13.6667V40.3333C0.333374 41.3893 0.952041 42.3413 1.91737 42.7707L25.9174 53.4373C26.264 53.592 26.632 53.6667 27 53.6667C27.3713 53.6572 27.7365 53.5699 28.072 53.4107L28.0827 53.4373L52.0827 42.7707C52.5544 42.5615 52.9552 42.2198 53.2364 41.7871C53.5176 41.3544 53.6671 40.8494 53.6667 40.3333V13.6667C53.6671 13.1506 53.5176 12.6456 53.2364 12.2129C52.9552 11.7802 52.5544 11.4385 52.0827 11.2293V11.2293ZM27 5.92L44.4347 13.6667L27 21.4133L23.512 19.864L9.56804 13.6667L27 5.92ZM5.66671 38.6027V17.7707L24.3334 26.0667V46.896L5.66671 38.6027ZM29.6667 46.896V26.0667L48.3334 17.7707V38.6027L29.6667 46.896Z" fill="url(#paint0_linear)"/>
<defs>
<linearGradient id="paint0_linear" x1="27" y1="0.332657" x2="27" y2="53.6667" gradientUnits="userSpaceOnUse">
<stop stop-color="#F9F047"/>
<stop offset="1" stop-color="#0FD850"/>
</linearGradient>
</defs>
</svg>
