<svg width="64" height="64" viewBox="0 0 64 64" fill="none" xmlns="http://www.w3.org/2000/svg">
<g filter="url(#filter0_ii)">
<path d="M63.7849 55.7316L54.6561 19.2153C54.1811 17.3166 52.6011 16.0003 50.7974 16.0003H43.2661C43.7124 14.7441 44.0011 13.4103 44.0011 12.0003C44.0011 5.37281 38.6286 0.000305176 32.0011 0.000305176C25.3736 0.000305176 20.0011 5.37281 20.0011 12.0003C20.0011 13.4103 20.2886 14.7441 20.7361 16.0003H13.2049C11.4011 16.0003 9.81989 17.3178 9.34614 19.2153L0.214895 55.7316C-0.826355 59.8953 2.0474 63.9991 6.00365 63.9991H57.9974C61.9524 63.9991 64.8261 59.8953 63.7849 55.7316ZM31.9999 15.9991C29.7949 15.9991 27.9999 14.2041 27.9999 11.9991C27.9999 9.79405 29.7949 7.99906 31.9999 7.99906C34.2049 7.99906 35.9999 9.79405 35.9999 11.9991C35.9999 14.2041 34.2049 15.9991 31.9999 15.9991Z" fill="white"/>
</g>
<defs>
<filter id="filter0_ii" x="-4" y="-3.99969" width="71.9998" height="71.9987" filterUnits="userSpaceOnUse" color-interpolation-filters="sRGB">
<feFlood flood-opacity="0" result="BackgroundImageFix"/>
<feBlend mode="normal" in="SourceGraphic" in2="BackgroundImageFix" result="shape"/>
<feColorMatrix in="SourceAlpha" type="matrix" values="0 0 0 0 0 0 0 0 0 0 0 0 0 0 0 0 0 0 127 0" result="hardAlpha"/>
<feOffset dx="4" dy="4"/>
<feGaussianBlur stdDeviation="2"/>
<feComposite in2="hardAlpha" operator="arithmetic" k2="-1" k3="1"/>
<feColorMatrix type="matrix" values="0 0 0 0 0 0 0 0 0 0 0 0 0 0 0 0 0 0 0.25 0"/>
<feBlend mode="normal" in2="shape" result="effect1_innerShadow"/>
<feColorMatrix in="SourceAlpha" type="matrix" values="0 0 0 0 0 0 0 0 0 0 0 0 0 0 0 0 0 0 127 0" result="hardAlpha"/>
<feOffset dx="-4" dy="-4"/>
<feGaussianBlur stdDeviation="2"/>
<feComposite in2="hardAlpha" operator="arithmetic" k2="-1" k3="1"/>
<feColorMatrix type="matrix" values="0 0 0 0 0 0 0 0 0 0 0 0 0 0 0 0 0 0 0.25 0"/>
<feBlend mode="normal" in2="effect1_innerShadow" result="effect2_innerShadow"/>
</filter>
</defs>
</svg>
