<svg width="64" height="64" viewBox="0 0 64 64" fill="none" xmlns="http://www.w3.org/2000/svg">
<path d="M63.7849 55.7316L54.6561 19.2153C54.1811 17.3166 52.6011 16.0003 50.7974 16.0003H43.2661C43.7124 14.7441 44.0011 13.4103 44.0011 12.0003C44.0011 5.37281 38.6286 0.000312805 32.0011 0.000312805C25.3736 0.000312805 20.0011 5.37281 20.0011 12.0003C20.0011 13.4103 20.2886 14.7441 20.7361 16.0003H13.2049C11.4011 16.0003 9.81989 17.3178 9.34614 19.2153L0.214895 55.7316C-0.826355 59.8953 2.0474 63.9991 6.00365 63.9991H57.9974C61.9524 63.9991 64.8261 59.8953 63.7849 55.7316ZM31.9999 15.9991C29.7949 15.9991 27.9999 14.2041 27.9999 11.9991C27.9999 9.79406 29.7949 7.99906 31.9999 7.99906C34.2049 7.99906 35.9999 9.79406 35.9999 11.9991C35.9999 14.2041 34.2049 15.9991 31.9999 15.9991Z" fill="url(#paint0_linear)"/>
<defs>
<linearGradient id="paint0_linear" x1="31.9999" y1="0.000312805" x2="31.9999" y2="63.9991" gradientUnits="userSpaceOnUse">
<stop stop-color="#F9F047"/>
<stop offset="1" stop-color="#0FD850"/>
</linearGradient>
</defs>
</svg>
