<svg width="136" height="58" viewBox="0 0 136 58" fill="none" xmlns="http://www.w3.org/2000/svg">
<g clip-path="url(#clip0)" filter="url(#filter0_ii)">
<path d="M58.0029 49.8057L49.8448 17.172C49.4203 15.4752 48.0083 14.2989 46.3963 14.2989H39.6658C40.0646 13.1762 40.3227 11.9842 40.3227 10.7242C40.3227 4.80133 35.5214 6.10352e-05 29.5986 6.10352e-05C23.6758 6.10352e-05 18.8745 4.80133 18.8745 10.7242C18.8745 11.9842 19.1314 13.1762 19.5313 14.2989H12.8009C11.1889 14.2989 9.77577 15.4763 9.35239 17.172L1.19203 49.8057C0.261493 53.5267 2.82969 57.1941 6.36529 57.1941H52.8308C56.3653 57.1941 58.9334 53.5267 58.0029 49.8057ZM29.5975 14.2977C27.6269 14.2977 26.0228 12.6936 26.0228 10.723C26.0228 8.75249 27.6269 7.14834 29.5975 7.14834C31.568 7.14834 33.1722 8.75249 33.1722 10.723C33.1722 12.6936 31.568 14.2977 29.5975 14.2977Z" fill="white"/>
<path d="M16.8 37.0001V23.8801H18.46V30.4601H18.52L23.98 23.8801H25.86L21.76 28.8801L26.5 37.0001H24.64L20.72 30.1801L18.46 32.8401V37.0001H16.8ZM33.1514 37.2401C32.2847 37.2401 31.4847 37.0867 30.7514 36.7801C30.0314 36.4734 29.4114 36.0334 28.8914 35.4601C28.3714 34.8734 27.9647 34.1601 27.6714 33.3201C27.3781 32.4667 27.2314 31.5067 27.2314 30.4401C27.2314 29.3867 27.3781 28.4401 27.6714 27.6001C27.9781 26.7601 28.3981 26.0467 28.9314 25.4601C29.4647 24.8734 30.0981 24.4267 30.8314 24.1201C31.5781 23.8001 32.3847 23.6401 33.2514 23.6401C33.7047 23.6401 34.1181 23.6867 34.4914 23.7801C34.8781 23.8734 35.2247 24.0001 35.5314 24.1601C35.8514 24.3067 36.1314 24.4801 36.3714 24.6801C36.6247 24.8667 36.8447 25.0601 37.0314 25.2601L36.1114 26.3401C35.7781 25.9934 35.3914 25.7001 34.9514 25.4601C34.5114 25.2201 33.9581 25.1001 33.2914 25.1001C32.6247 25.1001 32.0247 25.2267 31.4914 25.4801C30.9581 25.7201 30.5047 26.0734 30.1314 26.5401C29.7581 26.9934 29.4647 27.5467 29.2514 28.2001C29.0514 28.8534 28.9514 29.5867 28.9514 30.4001C28.9514 31.2267 29.0447 31.9734 29.2314 32.6401C29.4314 33.2934 29.7114 33.8534 30.0714 34.3201C30.4447 34.7867 30.8981 35.1467 31.4314 35.4001C31.9781 35.6534 32.6047 35.7801 33.3114 35.7801C33.7781 35.7801 34.2181 35.7134 34.6314 35.5801C35.0581 35.4334 35.4047 35.2401 35.6714 35.0001V31.5801H32.8914V30.2001H37.1914V35.7201C36.7647 36.1601 36.2047 36.5267 35.5114 36.8201C34.8181 37.1001 34.0314 37.2401 33.1514 37.2401Z" fill="url(#paint0_linear)"/>
</g>
<g filter="url(#filter1_ii)">
<path d="M135.003 49.8056L126.845 17.172C126.42 15.4751 125.008 14.2988 123.396 14.2988H116.666C117.065 13.1762 117.323 11.9842 117.323 10.7242C117.323 4.80133 112.521 6.10352e-05 106.599 6.10352e-05C100.676 6.10352e-05 95.8744 4.80133 95.8744 10.7242C95.8744 11.9842 96.1314 13.1762 96.5313 14.2988H89.8008C88.1888 14.2988 86.7757 15.4763 86.3523 17.172L78.192 49.8056C77.2614 53.5267 79.8296 57.1941 83.3652 57.1941H129.831C133.365 57.1941 135.933 53.5267 135.003 49.8056ZM106.597 14.2977C104.627 14.2977 103.023 12.6936 103.023 10.723C103.023 8.75248 104.627 7.14834 106.597 7.14834C108.568 7.14834 110.172 8.75248 110.172 10.723C110.172 12.6936 108.568 14.2977 106.597 14.2977Z" fill="white"/>
<path d="M90.7999 37.0001V23.8801H92.4599V35.5801H98.1999V37.0001H90.7999ZM100.527 37.0001V23.8801H104.427C105.093 23.8801 105.7 23.9401 106.247 24.0601C106.807 24.1801 107.28 24.3667 107.667 24.6201C108.067 24.8734 108.373 25.2067 108.587 25.6201C108.813 26.0201 108.927 26.5067 108.927 27.0801C108.927 27.7334 108.76 28.3267 108.427 28.8601C108.107 29.3801 107.633 29.7401 107.007 29.9401V30.0201C107.807 30.1667 108.453 30.5001 108.947 31.0201C109.44 31.5401 109.687 32.2534 109.687 33.1601C109.687 33.8001 109.567 34.3601 109.327 34.8401C109.087 35.3201 108.747 35.7201 108.307 36.0401C107.867 36.3601 107.34 36.6001 106.727 36.7601C106.113 36.9201 105.44 37.0001 104.707 37.0001H100.527ZM102.187 29.4601H104.127C105.247 29.4601 106.053 29.2667 106.547 28.8801C107.04 28.4934 107.287 27.9667 107.287 27.3001C107.287 26.5401 107.027 26.0001 106.507 25.6801C106 25.3601 105.233 25.2001 104.207 25.2001H102.187V29.4601ZM102.187 35.6801H104.467C105.6 35.6801 106.48 35.4734 107.107 35.0601C107.733 34.6334 108.047 33.9801 108.047 33.1001C108.047 32.2867 107.74 31.6934 107.127 31.3201C106.513 30.9334 105.627 30.7401 104.467 30.7401H102.187V35.6801ZM115.651 37.2401C114.731 37.2401 113.878 37.0667 113.091 36.7201C112.304 36.3734 111.624 35.9001 111.051 35.3001L112.051 34.1401C112.518 34.6334 113.064 35.0334 113.691 35.3401C114.331 35.6334 114.991 35.7801 115.671 35.7801C116.538 35.7801 117.211 35.5867 117.691 35.2001C118.171 34.8001 118.411 34.2801 118.411 33.6401C118.411 33.3067 118.351 33.0267 118.231 32.8001C118.124 32.5601 117.971 32.3601 117.771 32.2001C117.584 32.0267 117.358 31.8734 117.091 31.7401C116.824 31.6067 116.538 31.4667 116.231 31.3201L114.351 30.5001C114.044 30.3667 113.731 30.2067 113.411 30.0201C113.091 29.8334 112.804 29.6067 112.551 29.3401C112.298 29.0734 112.091 28.7601 111.931 28.4001C111.771 28.0267 111.691 27.6001 111.691 27.1201C111.691 26.6267 111.791 26.1667 111.991 25.7401C112.204 25.3134 112.491 24.9467 112.851 24.6401C113.224 24.3201 113.658 24.0734 114.151 23.9001C114.658 23.7267 115.211 23.6401 115.811 23.6401C116.598 23.6401 117.324 23.7934 117.991 24.1001C118.658 24.3934 119.224 24.7801 119.691 25.2601L118.791 26.3401C118.391 25.9534 117.944 25.6534 117.451 25.4401C116.971 25.2134 116.424 25.1001 115.811 25.1001C115.078 25.1001 114.484 25.2734 114.031 25.6201C113.591 25.9534 113.371 26.4201 113.371 27.0201C113.371 27.3401 113.431 27.6134 113.551 27.8401C113.684 28.0534 113.858 28.2467 114.071 28.4201C114.284 28.5801 114.518 28.7267 114.771 28.8601C115.024 28.9801 115.284 29.0934 115.551 29.2001L117.411 30.0001C117.784 30.1601 118.138 30.3467 118.471 30.5601C118.804 30.7601 119.091 31.0001 119.331 31.2801C119.571 31.5467 119.758 31.8667 119.891 32.2401C120.038 32.6001 120.111 33.0201 120.111 33.5001C120.111 34.0201 120.004 34.5067 119.791 34.9601C119.591 35.4134 119.298 35.8134 118.911 36.1601C118.524 36.4934 118.058 36.7601 117.511 36.9601C116.964 37.1467 116.344 37.2401 115.651 37.2401Z" fill="url(#paint1_linear)"/>
</g>
<g clip-path="url(#clip1)" filter="url(#filter2_ii)">
<path d="M73.2094 32.0589V34.0688H62.5672V32.0589C62.5672 31.1259 61.4392 30.6586 60.7794 31.3184L57.0241 35.0737C56.6151 35.4827 56.6151 36.1457 57.0241 36.5547L60.7794 40.31C61.4391 40.9698 62.5672 40.5025 62.5672 39.5695V37.5597H73.2094V39.5695C73.2094 40.5026 74.3374 40.9698 74.9972 40.3101L78.7525 36.5548C79.1615 36.1458 79.1615 35.4827 78.7525 35.0737L74.9972 31.3184C74.3375 30.6586 73.2094 31.1259 73.2094 32.0589Z" fill="white"/>
</g>
<defs>
<filter id="filter0_ii" x="-3.36072" y="-4.70929" width="61.1952" height="62.1952" filterUnits="userSpaceOnUse" color-interpolation-filters="sRGB">
<feFlood flood-opacity="0" result="BackgroundImageFix"/>
<feBlend mode="normal" in="SourceGraphic" in2="BackgroundImageFix" result="shape"/>
<feColorMatrix in="SourceAlpha" type="matrix" values="0 0 0 0 0 0 0 0 0 0 0 0 0 0 0 0 0 0 127 0" result="hardAlpha"/>
<feOffset dy="-12"/>
<feGaussianBlur stdDeviation="2.5"/>
<feComposite in2="hardAlpha" operator="arithmetic" k2="-1" k3="1"/>
<feColorMatrix type="matrix" values="0 0 0 0 0.305882 0 0 0 0 0.262745 0 0 0 0 0.462745 0 0 0 0.15 0"/>
<feBlend mode="normal" in2="shape" result="effect1_innerShadow"/>
<feColorMatrix in="SourceAlpha" type="matrix" values="0 0 0 0 0 0 0 0 0 0 0 0 0 0 0 0 0 0 127 0" result="hardAlpha"/>
<feOffset dx="-12"/>
<feGaussianBlur stdDeviation="2"/>
<feComposite in2="hardAlpha" operator="arithmetic" k2="-1" k3="1"/>
<feColorMatrix type="matrix" values="0 0 0 0 0.0352941 0 0 0 0 0.12549 0 0 0 0 0.247059 0 0 0 0.15 0"/>
<feBlend mode="normal" in2="effect1_innerShadow" result="effect2_innerShadow"/>
</filter>
<filter id="filter1_ii" x="73.9999" y="-3.99994" width="61.195" height="61.194" filterUnits="userSpaceOnUse" color-interpolation-filters="sRGB">
<feFlood flood-opacity="0" result="BackgroundImageFix"/>
<feBlend mode="normal" in="SourceGraphic" in2="BackgroundImageFix" result="shape"/>
<feColorMatrix in="SourceAlpha" type="matrix" values="0 0 0 0 0 0 0 0 0 0 0 0 0 0 0 0 0 0 127 0" result="hardAlpha"/>
<feOffset dy="-12"/>
<feGaussianBlur stdDeviation="2"/>
<feComposite in2="hardAlpha" operator="arithmetic" k2="-1" k3="1"/>
<feColorMatrix type="matrix" values="0 0 0 0 0.32549 0 0 0 0 0.470588 0 0 0 0 0.584314 0 0 0 0.15 0"/>
<feBlend mode="normal" in2="shape" result="effect1_innerShadow"/>
<feColorMatrix in="SourceAlpha" type="matrix" values="0 0 0 0 0 0 0 0 0 0 0 0 0 0 0 0 0 0 127 0" result="hardAlpha"/>
<feOffset dx="-12"/>
<feGaussianBlur stdDeviation="2"/>
<feComposite in2="hardAlpha" operator="arithmetic" k2="-1" k3="1"/>
<feColorMatrix type="matrix" values="0 0 0 0 0.0352941 0 0 0 0 0.12549 0 0 0 0 0.247059 0 0 0 0.15 0"/>
<feBlend mode="normal" in2="effect1_innerShadow" result="effect2_innerShadow"/>
</filter>
<filter id="filter2_ii" x="52.7174" y="20.6433" width="26.3419" height="26.3419" filterUnits="userSpaceOnUse" color-interpolation-filters="sRGB">
<feFlood flood-opacity="0" result="BackgroundImageFix"/>
<feBlend mode="normal" in="SourceGraphic" in2="BackgroundImageFix" result="shape"/>
<feColorMatrix in="SourceAlpha" type="matrix" values="0 0 0 0 0 0 0 0 0 0 0 0 0 0 0 0 0 0 127 0" result="hardAlpha"/>
<feOffset dy="-12"/>
<feGaussianBlur stdDeviation="2"/>
<feComposite in2="hardAlpha" operator="arithmetic" k2="-1" k3="1"/>
<feColorMatrix type="matrix" values="0 0 0 0 0.32549 0 0 0 0 0.470588 0 0 0 0 0.584314 0 0 0 0.15 0"/>
<feBlend mode="normal" in2="shape" result="effect1_innerShadow"/>
<feColorMatrix in="SourceAlpha" type="matrix" values="0 0 0 0 0 0 0 0 0 0 0 0 0 0 0 0 0 0 127 0" result="hardAlpha"/>
<feOffset dx="-12"/>
<feGaussianBlur stdDeviation="2"/>
<feComposite in2="hardAlpha" operator="arithmetic" k2="-1" k3="1"/>
<feColorMatrix type="matrix" values="0 0 0 0 0.0352941 0 0 0 0 0.12549 0 0 0 0 0.247059 0 0 0 0.15 0"/>
<feBlend mode="normal" in2="effect1_innerShadow" result="effect2_innerShadow"/>
</filter>
<linearGradient id="paint0_linear" x1="29" y1="17.0001" x2="29" y2="41.0001" gradientUnits="userSpaceOnUse">
<stop offset="0.138542" stop-color="#4E4376"/>
<stop offset="1" stop-color="#2B5876"/>
</linearGradient>
<linearGradient id="paint1_linear" x1="107" y1="17.0001" x2="107" y2="41.0001" gradientUnits="userSpaceOnUse">
<stop offset="0.138542" stop-color="#4E4376"/>
<stop offset="1" stop-color="#2B5876"/>
</linearGradient>
<clipPath id="clip0">
<rect width="57.1952" height="57.1952" fill="white" transform="translate(0.639282 0.29071)"/>
</clipPath>
<clipPath id="clip1">
<rect width="22.3419" height="22.3419" fill="white" transform="translate(56.7174 24.6433)"/>
</clipPath>
</defs>
</svg>
